<?xml version="1.0" encoding="utf-8"?>
<!-- Generator: Adobe Illustrator 27.5.0, SVG Export Plug-In . SVG Version: 6.00 Build 0)  -->
<svg version="1.1" xmlns="http://www.w3.org/2000/svg" xmlns:xlink="http://www.w3.org/1999/xlink" x="0px" y="0px"
	 viewBox="0 0 500 500" style="enable-background:new 0 0 500 500;" xml:space="preserve">
<g id="Background_Simple">
	<g>
		<path style="fill:#92E3A9;" d="M386.015,129.181c-3.237-6.274-6.63-12.453-10.491-18.341
			C330.966,42.892,211.632,5.902,152.501,76.135c-14.093,16.739-19.005,36.967-28.491,56.164
			c-21.575,43.662-61.884,69.766-87.159,110.197c-19.592,31.341-16.98,71.509-6.051,105.389
			c11.876,36.816,32.778,62.529,66.21,82.074c37.48,21.912,77.567,15.828,118.08,8.203c18.22-3.429,37.004-6.928,55.634-5.619
			c23.324,1.639,46.352,8.24,69.492,11.448c24.066,3.337,49.035,4.126,72.217-3.146c74.241-23.288,91.829-132.42,61.299-194.935
			c-10.807-22.128-29.122-39.2-46.129-56.522C409.246,170.692,397.993,152.393,386.015,129.181z"/>
		<path style="opacity:0.8;fill:#FFFFFF;" d="M386.015,129.181c-3.237-6.274-6.63-12.453-10.491-18.341
			C330.966,42.892,211.632,5.902,152.501,76.135c-14.093,16.739-19.005,36.967-28.491,56.164
			c-21.575,43.662-61.884,69.766-87.159,110.197c-19.592,31.341-16.98,71.509-6.051,105.389
			c11.876,36.816,32.778,62.529,66.21,82.074c37.48,21.912,77.567,15.828,118.08,8.203c18.22-3.429,37.004-6.928,55.634-5.619
			c23.324,1.639,46.352,8.24,69.492,11.448c24.066,3.337,49.035,4.126,72.217-3.146c74.241-23.288,91.829-132.42,61.299-194.935
			c-10.807-22.128-29.122-39.2-46.129-56.522C409.246,170.692,397.993,152.393,386.015,129.181z"/>
	</g>
</g>
<g id="Plants">
	<g>
		<path style="fill:#92E3A9;" d="M467.601,257.764c-3.943-0.667-11.333-5.741-11.339-5.745c-0.076-0.053,4.824-3.856,5.16-4.06
			c3.897-2.367,12.82-4.648,16.681-1.306c2.781,2.408,2.481,6.571-0.086,8.993C475.394,258.12,470.959,258.331,467.601,257.764z"/>
		<path style="fill:#92E3A9;" d="M450.802,277.798c-3.484-1.617-8.909-7.936-9.339-8.441c-3.508,3.056-7.355,5.908-11.407,8.579
			c-2.315,1.53-4.694,2.998-7.098,4.441c1.195-0.495,2.268-0.928,2.425-0.974c4.385-1.253,13.592-1.096,16.432,3.146
			c2.048,3.057,0.659,6.992-2.457,8.65c-3.181,1.694-7.516,0.726-10.605-0.708c-3.135-1.454-7.867-6.749-9.102-8.167
			c-0.928,0.544-1.849,1.097-2.779,1.637c-4.463,2.592-8.927,5.16-13.229,7.812c-1.517,0.934-2.975,1.909-4.44,2.88
			c1.063-0.439,1.961-0.799,2.104-0.84c4.384-1.253,13.592-1.097,16.432,3.146c2.047,3.057,0.658,6.992-2.457,8.65
			c-3.183,1.693-7.516,0.726-10.605-0.708c-2.992-1.388-7.404-6.236-8.878-7.913c-1.469,1.039-2.942,2.078-4.318,3.151
			c-0.923,0.754-1.865,1.415-2.749,2.225c-0.894,0.783-1.777,1.558-2.653,2.325c-1.632,1.539-3.326,3.117-4.88,4.659
			c-1.089,1.064-2.108,2.098-3.137,3.137c1.499-0.947,4.472-2.74,4.738-2.862c4.143-1.903,13.268-3.143,16.719,0.62
			c2.486,2.712,1.71,6.812-1.12,8.922c-2.888,2.156-7.318,1.856-10.589,0.907c-3.601-1.046-9.697-6.229-10.454-6.882
			c-1.696,1.725-3.33,3.418-4.846,5.042c-1.362,1.452-2.635,2.84-3.841,4.176l-2.677-1.751c1.352-1.438,2.788-2.941,4.334-4.518
			c1.715-1.759,3.583-3.603,5.52-5.479c-0.37-0.525-2.454-3.525-4.047-6.57c-3.736,0.938-11.154,0.045-12.11-0.077
			c-0.464,2.375-0.892,4.688-1.261,6.879c-0.258,1.507-0.493,2.957-0.71,4.355l-2.836-1.855c0.181-0.991,0.367-1.997,0.568-3.04
			c0.461-2.413,1.001-4.983,1.581-7.616c-0.914-0.358-8.365-3.323-10.978-6.02c-2.368-2.446-4.707-6.222-4.155-9.784
			c0.541-3.487,3.802-6.092,7.362-5.164c4.94,1.288,8.115,9.933,8.372,14.485c0.016,0.269-0.145,3.201-0.277,5.049
			c0.243-1.074,0.467-2.12,0.73-3.224c0.505-2.185,1.075-4.351,1.679-6.683c0.331-1.116,0.666-2.243,1.003-3.382
			c0.312-1.136,0.785-2.297,1.175-3.458c0.962-2.674,2.067-5.336,3.239-7.993c-1.912-0.448-8.68-2.136-11.405-4.205
			c-2.713-2.059-5.596-5.435-5.588-9.04c0.006-3.529,2.835-6.599,6.494-6.221c5.079,0.525,9.526,8.59,10.471,13.051
			c0.06,0.278,0.377,3.555,0.516,5.358c0.717-1.592,1.426-3.184,2.203-4.77c2.245-4.581,4.661-9.148,7.049-13.715
			c0.733-1.399,1.446-2.801,2.165-4.202c-0.682-0.152-8.769-1.984-11.822-4.301c-2.713-2.058-5.596-5.436-5.589-9.041
			c0.006-3.529,2.835-6.599,6.494-6.22c5.079,0.525,9.526,8.589,10.471,13.049c0.071,0.336,0.521,5.052,0.577,6.257
			c1.583-3.087,3.132-6.176,4.535-9.285c1.942-4.285,3.61-8.599,4.918-12.896c-0.318-0.07-8.767-1.944-11.893-4.317
			c-2.712-2.059-5.596-5.437-5.589-9.041c0.007-3.529,2.834-6.598,6.494-6.22c5.079,0.525,9.526,8.589,10.471,13.05
			c0.073,0.35,0.556,5.424,0.577,6.35c0.077-0.256,0.185-0.512,0.259-0.768c1.337-4.606,2.055-9.236,2.513-13.603
			c0.272-2.537,0.389-4.978,0.451-7.355c-1.61-0.188-8.956-1.127-12.005-2.951c-2.922-1.749-6.159-4.789-6.548-8.372
			c-0.381-3.509,2.093-6.87,5.771-6.896c5.107-0.035,10.412,7.491,11.841,11.821c0.077,0.235,0.602,2.716,0.958,4.529
			c0.012-1.073,0.044-2.18,0.033-3.208c-0.027-3.861-0.289-7.395-0.547-10.524c-0.161-1.777-0.341-3.381-0.527-4.881
			c-1.483-1.007-7.41-5.146-9.242-8.116c-1.786-2.899-3.26-7.088-1.953-10.448c1.28-3.29,5.025-5.133,8.3-3.46
			c4.548,2.32,5.79,11.446,5.062,15.947c-0.064,0.389-1.745,6.36-1.823,6.308c0,0-0.072-0.049-0.09-0.06
			c0.208,1.439,0.412,2.984,0.603,4.677c0.327,3.129,0.668,6.667,0.778,10.542c0.121,3.873,0.144,8.084-0.233,12.522
			c-0.371,4.449-0.99,9.109-2.248,13.829c-0.014,0.053-0.036,0.107-0.05,0.161c0.797-1.267,3.142-4.733,3.353-4.978
			c2.965-3.463,10.731-8.414,15.442-6.442c3.393,1.421,4.406,5.469,2.722,8.571c-1.721,3.167-5.868,4.751-9.236,5.26
			c-3.798,0.574-11.808-1.705-12.445-1.887c-1.239,4.484-2.875,8.984-4.781,13.447c-1.087,2.554-2.262,5.091-3.472,7.62
			c0.724-1.073,1.379-2.027,1.486-2.15c2.966-3.464,10.731-8.413,15.442-6.441c3.394,1.42,4.406,5.469,2.722,8.57
			c-1.72,3.168-5.868,4.751-9.235,5.26c-3.417,0.515-10.286-1.289-12.097-1.791c-0.474,0.966-0.937,1.935-1.415,2.899
			c-2.292,4.624-4.6,9.228-6.725,13.813c-0.75,1.616-1.429,3.234-2.113,4.85c0.644-0.951,1.195-1.748,1.29-1.86
			c2.966-3.464,10.731-8.413,15.441-6.443c3.394,1.422,4.407,5.47,2.723,8.572c-1.719,3.167-5.869,4.751-9.236,5.259
			c-3.26,0.493-9.616-1.116-11.771-1.703c-0.652,1.677-1.307,3.356-1.863,5.01c-0.354,1.139-0.773,2.209-1.066,3.373
			c-0.313,1.145-0.624,2.279-0.931,3.402c-0.511,2.185-1.054,4.435-1.5,6.578c-0.322,1.489-0.6,2.913-0.885,4.347
			c0.728-1.616,2.218-4.752,2.372-5c1.599-2.573,5.195-6.105,8.881-7.83c0.234-0.382,0.499-0.741,0.801-1.073
			c2.376-2.61,6.533-2.984,8.99-0.246c3.41,3.8,1.289,12.762-1.008,16.7c-0.135,0.233-1.887,2.59-3.017,4.058
			c0.796-0.762,1.559-1.511,2.387-2.286c1.628-1.543,3.297-3.035,5.087-4.648c0.892-0.748,1.793-1.503,2.703-2.266
			c0.886-0.775,1.92-1.483,2.887-2.236c2.277-1.698,4.668-3.31,7.111-4.879c-1.349-1.429-6.062-6.57-7.193-9.799
			c-1.127-3.214-1.668-7.621,0.326-10.624c1.953-2.94,6.005-3.941,8.848-1.606c3.947,3.24,3.208,12.419,1.535,16.661
			c-0.105,0.264-1.647,3.173-2.525,4.754c1.476-0.932,2.945-1.87,4.47-2.764c4.4-2.583,8.933-5.06,13.446-7.551
			c1.382-0.763,2.75-1.538,4.123-2.31c-0.485-0.504-6.22-6.494-7.487-10.11c-1.127-3.214-1.668-7.621,0.326-10.624
			c1.953-2.939,6.005-3.94,8.847-1.605c3.947,3.24,3.208,12.419,1.535,16.661c-0.127,0.319-2.352,4.501-2.97,5.537
			c3.022-1.7,6.019-3.423,8.904-5.242c3.984-2.504,7.755-5.18,11.216-8.043c-0.227-0.235-6.239-6.459-7.538-10.163
			c-1.127-3.214-1.668-7.621,0.327-10.624c1.952-2.94,6.004-3.94,8.848-1.605c3.947,3.239,3.207,12.419,1.534,16.66
			c-0.131,0.333-2.529,4.831-3.021,5.614c0.205-0.17,0.437-0.324,0.64-0.496c3.656-3.105,6.809-6.571,9.601-9.96
			c1.626-1.966,3.07-3.937,4.432-5.885c-1.238-1.045-6.848-5.881-8.384-9.085c-1.473-3.072-2.495-7.392-0.843-10.595
			c1.618-3.137,5.536-4.576,8.618-2.568c4.279,2.787,4.552,11.992,3.355,16.391c-0.065,0.24-0.996,2.599-1.699,4.307
			c0.601-0.889,1.239-1.795,1.798-2.658c2.107-3.235,3.839-6.328,5.349-9.079c0.847-1.572,1.58-3.01,2.252-4.362
			c-0.68-1.659-3.341-8.38-3.23-11.868c0.108-3.404,1.191-7.71,4.134-9.791c2.882-2.038,7.022-1.51,8.832,1.692
			c2.513,4.445-1.486,12.74-4.576,16.094c-0.267,0.289-4.964,4.341-5.001,4.255c0,0-0.033-0.081-0.041-0.1
			c-0.621,1.314-1.303,2.717-2.078,4.233c-1.453,2.79-3.121,5.929-5.167,9.222c-2.036,3.297-4.34,6.822-7.103,10.315
			c-2.764,3.505-5.851,7.052-9.504,10.294c-0.041,0.037-0.089,0.07-0.131,0.106c1.363-0.617,5.232-2.212,5.543-2.302
			c4.384-1.253,13.591-1.097,16.433,3.146c2.046,3.057,0.658,6.993-2.458,8.651C458.224,280.199,453.891,279.231,450.802,277.798z"
			/>
		<path style="fill:#92E3A9;" d="M390.651,209.795c-0.093-0.002,1.896-5.878,2.064-6.234c1.946-4.123,8.129-10.948,13.193-10.29
			c3.648,0.473,5.693,4.111,4.887,7.548c-0.822,3.509-4.404,6.132-7.518,7.512C399.622,209.951,390.658,209.794,390.651,209.795z"/>
	</g>
	<g>
		<path style="fill:#92E3A9;" d="M429.543,383.056c-1.054-1.629-1.662-5.935-1.662-5.939c-0.006-0.045,2.96,0.461,3.144,0.515
			c2.124,0.618,5.865,3.062,5.935,5.538c0.051,1.784-1.537,3.041-3.245,2.917C431.971,385.96,430.441,384.443,429.543,383.056z"/>
		<path style="fill:#92E3A9;" d="M416.871,383.615c-0.564-1.776-0.082-5.788-0.042-6.107c-2.243-0.253-4.524-0.694-6.808-1.268
			c-1.306-0.326-2.611-0.696-3.915-1.083c0.569,0.265,1.076,0.507,1.143,0.548c1.886,1.158,4.848,4.502,4.261,6.909
			c-0.422,1.734-2.285,2.527-3.899,1.957c-1.649-0.582-2.724-2.45-3.223-4.025c-0.508-1.598-0.165-5.026-0.063-5.932
			c-0.499-0.154-0.998-0.302-1.496-0.457c-2.39-0.746-4.772-1.501-7.131-2.171c-0.831-0.236-1.658-0.438-2.485-0.644
			c0.505,0.236,0.929,0.439,0.99,0.477c1.885,1.157,4.848,4.502,4.262,6.909c-0.422,1.734-2.285,2.528-3.899,1.957
			c-1.649-0.583-2.723-2.45-3.223-4.025c-0.485-1.525-0.197-4.692-0.08-5.77c-0.853-0.185-1.707-0.371-2.543-0.512
			c-0.572-0.083-1.118-0.203-1.697-0.254c-0.573-0.063-1.14-0.125-1.701-0.187c-1.085-0.079-2.205-0.168-3.266-0.218
			c-0.738-0.041-1.441-0.066-2.15-0.094c0.83,0.225,2.446,0.701,2.577,0.756c2.039,0.858,5.473,3.715,5.259,6.183
			c-0.155,1.778-1.876,2.844-3.558,2.524c-1.718-0.326-3.063-2.009-3.796-3.49c-0.806-1.631-0.951-5.51-0.966-5.995
			c-1.173-0.041-2.314-0.071-3.392-0.081c-0.966-0.011-1.88-0.011-2.753-0.005l-0.251-1.531c0.958,0.012,1.965,0.033,3.036,0.069
			c1.191,0.037,2.463,0.1,3.769,0.178c0.066-0.304,0.456-2.033,1.023-3.601c-1.56-1.029-3.672-3.974-3.942-4.356
			c-1.001,0.612-1.969,1.218-2.874,1.804c-0.624,0.402-1.219,0.793-1.79,1.174l-0.266-1.622c0.414-0.26,0.834-0.523,1.274-0.793
			c1.014-0.626,2.111-1.275,3.242-1.931c-0.172-0.444-1.553-4.081-1.446-5.9c0.099-1.649,0.682-3.723,2.137-4.693
			c1.424-0.95,3.425-0.637,4.26,0.94c1.159,2.189-0.892,6.159-2.436,7.743c-0.091,0.094-1.192,0.997-1.896,1.556
			c0.464-0.266,0.911-0.528,1.392-0.796c0.947-0.536,1.908-1.042,2.94-1.59c0.508-0.247,1.021-0.497,1.538-0.75
			c0.508-0.261,1.079-0.472,1.622-0.713c1.272-0.533,2.586-1.01,3.921-1.462c-0.466-0.831-2.081-3.804-2.235-5.457
			c-0.153-1.645,0.11-3.783,1.401-4.962c1.264-1.155,3.289-1.149,4.354,0.284c1.477,1.989,0.051,6.223-1.235,8.023
			c-0.08,0.112-1.148,1.3-1.747,1.941c0.804-0.265,1.606-0.534,2.428-0.776c2.374-0.699,4.8-1.332,7.216-1.975
			c0.74-0.196,1.476-0.401,2.212-0.603c-0.169-0.294-2.165-3.787-2.337-5.638c-0.153-1.645,0.11-3.783,1.401-4.962
			c1.264-1.154,3.289-1.149,4.353,0.284c1.477,1.989,0.051,6.223-1.235,8.023c-0.097,0.135-1.636,1.843-2.049,2.258
			c1.623-0.446,3.236-0.905,4.807-1.422c2.169-0.71,4.259-1.528,6.225-2.469c-0.079-0.136-2.179-3.773-2.355-5.669
			c-0.153-1.645,0.11-3.784,1.402-4.963c1.264-1.154,3.289-1.149,4.354,0.284c1.477,1.989,0.051,6.223-1.235,8.023
			c-0.101,0.141-1.758,1.977-2.082,2.288c0.117-0.057,0.244-0.102,0.36-0.159c2.086-1.032,3.977-2.293,5.689-3.56
			c0.997-0.734,1.908-1.493,2.778-2.25c-0.461-0.637-2.533-3.573-2.88-5.261c-0.332-1.618-0.306-3.773,0.848-5.086
			c1.13-1.287,3.143-1.504,4.358-0.197c1.687,1.815,0.734,6.18-0.346,8.11c-0.059,0.105-0.774,1.106-1.306,1.827
			c0.388-0.348,0.794-0.699,1.159-1.04c1.372-1.275,2.55-2.528,3.585-3.646c0.583-0.64,1.097-1.231,1.573-1.789
			c-0.126-0.861-0.589-4.337-0.127-5.966c0.451-1.589,1.466-3.49,3.096-4.124c1.596-0.621,3.483,0.114,3.959,1.834
			c0.661,2.387-2.196,5.823-4.044,7.038c-0.16,0.105-2.847,1.461-2.854,1.416c0,0-0.006-0.042-0.008-0.052
			c-0.447,0.546-0.932,1.126-1.475,1.749c-1.012,1.143-2.166,2.424-3.516,3.734c-1.345,1.313-2.844,2.702-4.555,4.022
			c-1.713,1.326-3.583,2.632-5.683,3.729c-0.023,0.013-0.05,0.022-0.074,0.035c0.714-0.13,2.723-0.427,2.879-0.433
			c2.211-0.075,6.527,1.08,7.366,3.411c0.604,1.679-0.512,3.369-2.173,3.783c-1.697,0.423-3.623-0.541-4.909-1.579
			c-1.45-1.17-3.261-4.782-3.405-5.07c-2.01,1.027-4.156,1.917-6.377,2.698c-1.27,0.448-2.562,0.86-3.864,1.256
			c0.621-0.093,1.177-0.171,1.256-0.173c2.211-0.075,6.527,1.08,7.366,3.411c0.605,1.679-0.512,3.369-2.173,3.783
			c-1.697,0.423-3.623-0.541-4.909-1.579c-1.304-1.053-2.911-4.101-3.325-4.914c-0.501,0.147-0.999,0.299-1.501,0.444
			c-2.405,0.696-4.808,1.38-7.145,2.123c-0.824,0.261-1.625,0.549-2.427,0.834c0.551-0.082,1.017-0.146,1.088-0.148
			c2.211-0.075,6.527,1.08,7.366,3.41c0.604,1.68-0.512,3.369-2.173,3.784c-1.696,0.423-3.623-0.542-4.909-1.579
			c-1.245-1.004-2.753-3.805-3.249-4.768c-0.814,0.317-1.629,0.632-2.403,0.976c-0.523,0.247-1.044,0.448-1.556,0.725
			c-0.512,0.263-1.02,0.524-1.522,0.782c-0.949,0.533-1.932,1.077-2.844,1.62c-0.638,0.373-1.239,0.741-1.845,1.108
			c0.817-0.269,2.427-0.764,2.566-0.79c1.444-0.271,3.886-0.144,5.712,0.609c0.213-0.042,0.428-0.064,0.646-0.065
			c1.712-0.006,3.209,1.358,3.035,3.135c-0.241,2.466-4.142,4.644-6.303,5.114c-0.128,0.028-1.545,0.174-2.44,0.252
			c0.534,0.035,1.052,0.062,1.6,0.104c1.085,0.076,2.166,0.185,3.33,0.296c0.56,0.074,1.125,0.149,1.697,0.224
			c0.568,0.063,1.16,0.201,1.746,0.3c1.354,0.258,2.714,0.584,4.076,0.944c0.069-0.951,0.363-4.322,1.147-5.785
			c0.78-1.457,2.179-3.095,3.906-3.366c1.692-0.265,3.378,0.856,3.475,2.638c0.135,2.474-3.39,5.219-5.456,6.011
			c-0.129,0.049-1.675,0.451-2.528,0.655c0.817,0.223,1.634,0.441,2.454,0.693c2.366,0.727,4.738,1.536,7.108,2.334
			c0.726,0.245,1.452,0.48,2.178,0.718c0.021-0.339,0.284-4.353,1.161-5.992c0.78-1.456,2.179-3.095,3.907-3.366
			c1.691-0.265,3.377,0.856,3.474,2.638c0.135,2.474-3.39,5.218-5.456,6.011c-0.156,0.059-2.381,0.634-2.954,0.753
			c1.599,0.523,3.198,1.03,4.794,1.466c2.202,0.604,4.395,1.075,6.554,1.375c0.01-0.158,0.265-4.349,1.163-6.027
			c0.78-1.457,2.179-3.095,3.907-3.366c1.692-0.266,3.377,0.856,3.474,2.638c0.135,2.474-3.39,5.218-5.456,6.01
			c-0.162,0.062-2.557,0.679-2.999,0.76c0.128,0.018,0.259,0.05,0.387,0.066c2.309,0.29,4.582,0.281,6.71,0.169
			c1.236-0.063,2.414-0.192,3.558-0.344c-0.032-0.785-0.142-4.377,0.501-5.977c0.616-1.534,1.826-3.316,3.513-3.775
			c1.652-0.449,3.451,0.48,3.744,2.241c0.406,2.444-2.797,5.559-4.763,6.573c-0.107,0.055-1.256,0.496-2.097,0.804
			c0.515-0.076,1.048-0.145,1.54-0.228c1.848-0.307,3.521-0.701,5.001-1.063c0.84-0.213,1.595-0.422,2.298-0.624
			c0.371-0.787,1.902-3.942,3.186-5.046c1.253-1.077,3.148-2.101,4.857-1.731c1.674,0.363,2.842,2.017,2.29,3.714
			c-0.766,2.356-5.044,3.645-7.256,3.639c-0.191-0.001-3.18-0.353-3.162-0.394c0,0,0.018-0.038,0.023-0.047
			c-0.673,0.209-1.399,0.425-2.195,0.645c-1.474,0.395-3.143,0.827-4.992,1.175c-1.847,0.353-3.863,0.684-6.018,0.841
			c-2.16,0.16-4.44,0.219-6.797-0.025c-0.027-0.003-0.054-0.009-0.081-0.012c0.667,0.285,2.506,1.146,2.64,1.228
			c1.885,1.157,4.848,4.501,4.262,6.908c-0.423,1.734-2.285,2.528-3.9,1.957C418.445,387.057,417.371,385.19,416.871,383.615z"/>
		<path style="fill:#92E3A9;" d="M421.475,339.81c-0.03-0.034,2.724-1.249,2.906-1.305c2.113-0.656,6.581-0.681,8.005,1.345
			c1.026,1.46,0.396,3.384-1.098,4.222c-1.524,0.856-3.637,0.435-5.151-0.227C424.36,343.069,421.477,339.812,421.475,339.81z"/>
	</g>
	<g>
		<path style="fill:#92E3A9;" d="M27.467,257.764c3.943-0.667,11.333-5.741,11.339-5.745c0.076-0.053-4.824-3.856-5.16-4.06
			c-3.897-2.367-12.82-4.648-16.681-1.306c-2.781,2.408-2.481,6.571,0.086,8.993C19.674,258.12,24.108,258.331,27.467,257.764z"/>
		<path style="fill:#92E3A9;" d="M44.265,277.798c3.484-1.617,8.909-7.936,9.339-8.441c3.508,3.056,7.355,5.908,11.407,8.579
			c2.315,1.53,4.694,2.998,7.098,4.441c-1.195-0.495-2.268-0.928-2.425-0.974c-4.385-1.253-13.592-1.096-16.432,3.146
			c-2.048,3.057-0.659,6.992,2.457,8.65c3.181,1.694,7.516,0.726,10.605-0.708c3.135-1.454,7.867-6.749,9.102-8.167
			c0.928,0.544,1.849,1.097,2.779,1.637c4.463,2.592,8.927,5.16,13.229,7.812c1.517,0.934,2.975,1.909,4.439,2.88
			c-1.063-0.439-1.961-0.799-2.104-0.84c-4.384-1.253-13.592-1.097-16.432,3.146c-2.047,3.057-0.658,6.992,2.457,8.65
			c3.183,1.693,7.516,0.726,10.605-0.708c2.992-1.388,7.404-6.236,8.878-7.913c1.469,1.039,2.942,2.078,4.318,3.151
			c0.923,0.754,1.865,1.415,2.749,2.225c0.894,0.783,1.777,1.558,2.653,2.325c1.632,1.539,3.326,3.117,4.88,4.659
			c1.089,1.064,2.108,2.098,3.137,3.137c-1.499-0.947-4.472-2.74-4.738-2.862c-4.143-1.903-13.268-3.143-16.719,0.62
			c-2.486,2.712-1.71,6.812,1.12,8.922c2.888,2.156,7.318,1.856,10.589,0.907c3.601-1.046,9.697-6.229,10.454-6.882
			c1.696,1.725,3.33,3.418,4.846,5.042c1.362,1.452,2.635,2.84,3.841,4.176l2.677-1.751c-1.352-1.438-2.788-2.941-4.334-4.518
			c-1.715-1.759-3.583-3.603-5.52-5.479c0.37-0.525,2.454-3.525,4.047-6.57c3.736,0.938,11.154,0.045,12.11-0.077
			c0.464,2.375,0.892,4.688,1.261,6.879c0.258,1.507,0.493,2.957,0.71,4.355l2.836-1.855c-0.181-0.991-0.367-1.997-0.568-3.04
			c-0.461-2.413-1.001-4.983-1.581-7.616c0.914-0.358,8.365-3.323,10.977-6.02c2.368-2.446,4.707-6.222,4.155-9.784
			c-0.541-3.487-3.802-6.092-7.363-5.164c-4.94,1.288-8.115,9.933-8.372,14.485c-0.016,0.269,0.145,3.201,0.277,5.049
			c-0.243-1.074-0.467-2.12-0.73-3.224c-0.505-2.185-1.075-4.351-1.679-6.683c-0.331-1.116-0.666-2.243-1.003-3.382
			c-0.312-1.136-0.785-2.297-1.175-3.458c-0.962-2.674-2.067-5.336-3.239-7.993c1.912-0.448,8.68-2.136,11.405-4.205
			c2.713-2.059,5.596-5.435,5.588-9.04c-0.006-3.529-2.835-6.599-6.494-6.221c-5.079,0.525-9.526,8.59-10.471,13.051
			c-0.06,0.278-0.377,3.555-0.516,5.358c-0.717-1.592-1.425-3.184-2.204-4.77c-2.245-4.581-4.661-9.148-7.049-13.715
			c-0.733-1.399-1.446-2.801-2.165-4.202c0.682-0.152,8.769-1.984,11.822-4.301c2.713-2.058,5.596-5.436,5.589-9.041
			c-0.006-3.529-2.835-6.599-6.494-6.22c-5.079,0.525-9.526,8.589-10.471,13.049c-0.071,0.336-0.521,5.052-0.577,6.257
			c-1.583-3.087-3.132-6.176-4.535-9.285c-1.942-4.285-3.61-8.599-4.918-12.896c0.317-0.07,8.767-1.944,11.893-4.317
			c2.712-2.059,5.596-5.437,5.589-9.041c-0.007-3.529-2.834-6.598-6.494-6.22c-5.079,0.525-9.526,8.589-10.471,13.05
			c-0.074,0.35-0.556,5.424-0.577,6.35c-0.077-0.256-0.185-0.512-0.259-0.768c-1.337-4.606-2.055-9.236-2.513-13.603
			c-0.272-2.537-0.39-4.978-0.451-7.355c1.61-0.188,8.956-1.127,12.005-2.951c2.922-1.749,6.159-4.789,6.548-8.372
			c0.381-3.509-2.093-6.87-5.771-6.896c-5.107-0.035-10.412,7.491-11.841,11.821c-0.077,0.235-0.602,2.716-0.958,4.529
			c-0.012-1.073-0.044-2.18-0.033-3.208c0.027-3.861,0.289-7.395,0.547-10.524c0.161-1.777,0.341-3.381,0.527-4.881
			c1.483-1.007,7.41-5.146,9.242-8.116c1.786-2.899,3.26-7.088,1.953-10.448c-1.28-3.29-5.025-5.133-8.3-3.46
			c-4.548,2.32-5.79,11.446-5.062,15.947c0.064,0.389,1.746,6.36,1.823,6.308c0,0,0.072-0.049,0.09-0.06
			c-0.208,1.439-0.412,2.984-0.603,4.677c-0.327,3.129-0.668,6.667-0.778,10.542c-0.121,3.873-0.144,8.084,0.233,12.522
			c0.372,4.449,0.99,9.109,2.248,13.829c0.014,0.053,0.036,0.107,0.05,0.161c-0.797-1.267-3.142-4.733-3.353-4.978
			c-2.965-3.463-10.731-8.414-15.442-6.442c-3.393,1.421-4.406,5.469-2.722,8.571c1.721,3.167,5.868,4.751,9.236,5.26
			c3.798,0.574,11.808-1.705,12.445-1.887c1.239,4.484,2.875,8.984,4.781,13.447c1.088,2.554,2.262,5.091,3.472,7.62
			c-0.724-1.073-1.379-2.027-1.486-2.15c-2.966-3.464-10.731-8.413-15.442-6.441c-3.394,1.42-4.406,5.469-2.722,8.57
			c1.72,3.168,5.868,4.751,9.235,5.26c3.417,0.515,10.286-1.289,12.097-1.791c0.474,0.966,0.937,1.935,1.415,2.899
			c2.292,4.624,4.6,9.228,6.725,13.813c0.75,1.616,1.429,3.234,2.113,4.85c-0.644-0.951-1.195-1.748-1.29-1.86
			c-2.966-3.464-10.731-8.413-15.441-6.443c-3.394,1.422-4.407,5.47-2.723,8.572c1.719,3.167,5.869,4.751,9.236,5.259
			c3.26,0.493,9.616-1.116,11.77-1.703c0.652,1.677,1.307,3.356,1.863,5.01c0.354,1.139,0.773,2.209,1.066,3.373
			c0.313,1.145,0.623,2.279,0.931,3.402c0.511,2.185,1.054,4.435,1.5,6.578c0.322,1.489,0.6,2.913,0.885,4.347
			c-0.728-1.616-2.218-4.752-2.372-5c-1.599-2.573-5.195-6.105-8.881-7.83c-0.234-0.382-0.499-0.741-0.801-1.073
			c-2.376-2.61-6.533-2.984-8.99-0.246c-3.41,3.8-1.289,12.762,1.008,16.7c0.135,0.233,1.887,2.59,3.017,4.058
			c-0.796-0.762-1.559-1.511-2.387-2.286c-1.628-1.543-3.297-3.035-5.088-4.648c-0.892-0.748-1.793-1.503-2.703-2.266
			c-0.886-0.775-1.92-1.483-2.887-2.236c-2.277-1.698-4.668-3.31-7.111-4.879c1.348-1.429,6.062-6.57,7.193-9.799
			c1.127-3.214,1.668-7.621-0.326-10.624c-1.953-2.94-6.005-3.941-8.848-1.606c-3.947,3.24-3.208,12.419-1.535,16.661
			c0.105,0.264,1.647,3.173,2.525,4.754c-1.476-0.932-2.945-1.87-4.47-2.764c-4.4-2.583-8.933-5.06-13.446-7.551
			c-1.382-0.763-2.75-1.538-4.123-2.31c0.485-0.504,6.22-6.494,7.488-10.11c1.127-3.214,1.668-7.621-0.326-10.624
			c-1.953-2.939-6.005-3.94-8.848-1.605c-3.947,3.24-3.208,12.419-1.535,16.661c0.127,0.319,2.352,4.501,2.97,5.537
			c-3.022-1.7-6.019-3.423-8.904-5.242c-3.984-2.504-7.755-5.18-11.216-8.043c0.227-0.235,6.239-6.459,7.538-10.163
			c1.127-3.214,1.668-7.621-0.326-10.624c-1.952-2.94-6.004-3.94-8.848-1.605c-3.947,3.239-3.207,12.419-1.534,16.66
			c0.131,0.333,2.529,4.831,3.021,5.614c-0.205-0.17-0.437-0.324-0.64-0.496c-3.656-3.105-6.809-6.571-9.601-9.96
			c-1.626-1.966-3.07-3.937-4.432-5.885c1.238-1.045,6.848-5.881,8.384-9.085c1.473-3.072,2.495-7.392,0.843-10.595
			c-1.618-3.137-5.536-4.576-8.618-2.568c-4.279,2.787-4.552,11.992-3.355,16.391c0.065,0.24,0.996,2.599,1.699,4.307
			c-0.601-0.889-1.239-1.795-1.798-2.658c-2.107-3.235-3.839-6.328-5.349-9.079c-0.847-1.572-1.58-3.01-2.252-4.362
			c0.68-1.659,3.341-8.38,3.23-11.868c-0.108-3.404-1.191-7.71-4.134-9.791c-2.882-2.038-7.022-1.51-8.832,1.692
			c-2.513,4.445,1.486,12.74,4.576,16.094c0.267,0.289,4.965,4.341,5.001,4.255c0,0,0.033-0.081,0.041-0.1
			c0.621,1.314,1.303,2.717,2.078,4.233c1.453,2.79,3.121,5.929,5.167,9.222c2.036,3.297,4.34,6.822,7.103,10.315
			c2.764,3.505,5.851,7.052,9.504,10.294c0.041,0.037,0.089,0.07,0.131,0.106c-1.363-0.617-5.232-2.212-5.544-2.302
			c-4.384-1.253-13.591-1.097-16.433,3.146c-2.046,3.057-0.658,6.993,2.458,8.651C36.844,280.199,41.177,279.231,44.265,277.798z"/>
		<path style="fill:#92E3A9;" d="M104.416,209.795c0.093-0.002-1.896-5.878-2.064-6.234c-1.946-4.123-8.13-10.948-13.193-10.29
			c-3.648,0.473-5.693,4.111-4.887,7.548c0.822,3.509,4.404,6.132,7.518,7.512C95.446,209.951,104.409,209.794,104.416,209.795z"/>
	</g>
	<g>
		<path style="fill:#92E3A9;" d="M65.524,383.056c1.054-1.629,1.662-5.935,1.662-5.939c0.006-0.045-2.96,0.461-3.144,0.515
			c-2.124,0.618-5.865,3.062-5.935,5.538c-0.051,1.784,1.537,3.041,3.245,2.917C63.097,385.96,64.626,384.443,65.524,383.056z"/>
		<path style="fill:#92E3A9;" d="M78.196,383.615c0.564-1.776,0.082-5.788,0.042-6.107c2.243-0.253,4.524-0.694,6.808-1.268
			c1.306-0.326,2.611-0.696,3.915-1.083c-0.569,0.265-1.076,0.507-1.143,0.548c-1.886,1.158-4.848,4.502-4.261,6.909
			c0.422,1.734,2.285,2.527,3.899,1.957c1.649-0.582,2.724-2.45,3.223-4.025c0.508-1.598,0.165-5.026,0.063-5.932
			c0.499-0.154,0.998-0.302,1.496-0.457c2.39-0.746,4.772-1.501,7.131-2.171c0.831-0.236,1.658-0.438,2.485-0.644
			c-0.505,0.236-0.929,0.439-0.99,0.477c-1.885,1.157-4.848,4.502-4.261,6.909c0.422,1.734,2.285,2.528,3.899,1.957
			c1.649-0.583,2.724-2.45,3.223-4.025c0.485-1.525,0.197-4.692,0.08-5.77c0.853-0.185,1.707-0.371,2.542-0.512
			c0.573-0.083,1.118-0.203,1.697-0.254c0.573-0.063,1.14-0.125,1.701-0.187c1.085-0.079,2.205-0.168,3.266-0.218
			c0.738-0.041,1.442-0.066,2.15-0.094c-0.83,0.225-2.446,0.701-2.576,0.756c-2.039,0.858-5.473,3.715-5.259,6.183
			c0.155,1.778,1.876,2.844,3.558,2.524c1.718-0.326,3.063-2.009,3.796-3.49c0.806-1.631,0.951-5.51,0.966-5.995
			c1.173-0.041,2.314-0.071,3.392-0.081c0.966-0.011,1.88-0.011,2.753-0.005l0.251-1.531c-0.958,0.012-1.965,0.033-3.036,0.069
			c-1.191,0.037-2.463,0.1-3.769,0.178c-0.066-0.304-0.456-2.033-1.023-3.601c1.56-1.029,3.672-3.974,3.942-4.356
			c1.002,0.612,1.969,1.218,2.874,1.804c0.624,0.402,1.219,0.793,1.79,1.174l0.266-1.622c-0.414-0.26-0.834-0.523-1.274-0.793
			c-1.014-0.626-2.11-1.275-3.242-1.931c0.172-0.444,1.553-4.081,1.446-5.9c-0.099-1.649-0.682-3.723-2.138-4.693
			c-1.424-0.95-3.425-0.637-4.26,0.94c-1.159,2.189,0.892,6.159,2.436,7.743c0.091,0.094,1.192,0.997,1.896,1.556
			c-0.464-0.266-0.911-0.528-1.392-0.796c-0.947-0.536-1.908-1.042-2.94-1.59c-0.508-0.247-1.021-0.497-1.538-0.75
			c-0.508-0.261-1.079-0.472-1.622-0.713c-1.272-0.533-2.586-1.01-3.921-1.462c0.466-0.831,2.081-3.804,2.235-5.457
			c0.153-1.645-0.11-3.783-1.401-4.962c-1.264-1.155-3.29-1.149-4.354,0.284c-1.477,1.989-0.051,6.223,1.235,8.023
			c0.08,0.112,1.148,1.3,1.747,1.941c-0.804-0.265-1.606-0.534-2.428-0.776c-2.374-0.699-4.8-1.332-7.216-1.975
			c-0.74-0.196-1.476-0.401-2.213-0.603c0.169-0.294,2.165-3.787,2.337-5.638c0.153-1.645-0.11-3.783-1.401-4.962
			c-1.264-1.154-3.289-1.149-4.353,0.284c-1.477,1.989-0.051,6.223,1.235,8.023c0.097,0.135,1.636,1.843,2.049,2.258
			c-1.623-0.446-3.236-0.905-4.807-1.422c-2.169-0.71-4.259-1.528-6.225-2.469c0.079-0.136,2.178-3.773,2.355-5.669
			c0.153-1.645-0.11-3.784-1.402-4.963c-1.264-1.154-3.289-1.149-4.354,0.284c-1.477,1.989-0.051,6.223,1.235,8.023
			c0.101,0.141,1.758,1.977,2.082,2.288c-0.117-0.057-0.244-0.102-0.36-0.159c-2.086-1.032-3.977-2.293-5.689-3.56
			c-0.997-0.734-1.908-1.493-2.778-2.25c0.461-0.637,2.533-3.573,2.88-5.261c0.332-1.618,0.306-3.773-0.848-5.086
			c-1.13-1.287-3.143-1.504-4.358-0.197c-1.687,1.815-0.734,6.18,0.346,8.11c0.059,0.105,0.774,1.106,1.306,1.827
			c-0.388-0.348-0.794-0.699-1.159-1.04c-1.372-1.275-2.55-2.528-3.584-3.646c-0.583-0.64-1.098-1.231-1.573-1.789
			c0.126-0.861,0.589-4.337,0.127-5.966c-0.451-1.589-1.467-3.49-3.096-4.124c-1.596-0.621-3.483,0.114-3.959,1.834
			c-0.661,2.387,2.196,5.823,4.044,7.038c0.16,0.105,2.847,1.461,2.854,1.416c0,0,0.006-0.042,0.008-0.052
			c0.447,0.546,0.932,1.126,1.475,1.749c1.012,1.143,2.166,2.424,3.516,3.734c1.345,1.313,2.844,2.702,4.555,4.022
			c1.713,1.326,3.582,2.632,5.683,3.729c0.023,0.013,0.05,0.022,0.074,0.035c-0.714-0.13-2.723-0.427-2.879-0.433
			c-2.211-0.075-6.527,1.08-7.366,3.411c-0.604,1.679,0.512,3.369,2.173,3.783c1.697,0.423,3.623-0.541,4.909-1.579
			c1.45-1.17,3.261-4.782,3.405-5.07c2.01,1.027,4.156,1.917,6.377,2.698c1.27,0.448,2.562,0.86,3.864,1.256
			c-0.621-0.093-1.177-0.171-1.256-0.173c-2.211-0.075-6.527,1.08-7.366,3.411c-0.605,1.679,0.512,3.369,2.173,3.783
			c1.697,0.423,3.623-0.541,4.909-1.579c1.304-1.053,2.911-4.101,3.325-4.914c0.501,0.147,0.999,0.299,1.5,0.444
			c2.405,0.696,4.808,1.38,7.145,2.123c0.824,0.261,1.625,0.549,2.428,0.834c-0.551-0.082-1.017-0.146-1.088-0.148
			c-2.211-0.075-6.527,1.08-7.366,3.41c-0.604,1.68,0.511,3.369,2.173,3.784c1.696,0.423,3.623-0.542,4.909-1.579
			c1.245-1.004,2.753-3.805,3.249-4.768c0.814,0.317,1.629,0.632,2.403,0.976c0.523,0.247,1.044,0.448,1.556,0.725
			c0.512,0.263,1.02,0.524,1.522,0.782c0.949,0.533,1.932,1.077,2.844,1.62c0.638,0.373,1.239,0.741,1.845,1.108
			c-0.817-0.269-2.427-0.764-2.566-0.79c-1.444-0.271-3.886-0.144-5.712,0.609c-0.213-0.042-0.428-0.064-0.646-0.065
			c-1.712-0.006-3.209,1.358-3.035,3.135c0.241,2.466,4.142,4.644,6.303,5.114c0.128,0.028,1.545,0.174,2.44,0.252
			c-0.534,0.035-1.051,0.062-1.6,0.104c-1.085,0.076-2.166,0.185-3.33,0.296c-0.56,0.074-1.125,0.149-1.697,0.224
			c-0.568,0.063-1.16,0.201-1.746,0.3c-1.354,0.258-2.714,0.584-4.076,0.944c-0.069-0.951-0.363-4.322-1.147-5.785
			c-0.78-1.457-2.179-3.095-3.906-3.366c-1.692-0.265-3.378,0.856-3.475,2.638c-0.135,2.474,3.39,5.219,5.456,6.011
			c0.129,0.049,1.675,0.451,2.528,0.655c-0.817,0.223-1.634,0.441-2.454,0.693c-2.366,0.727-4.738,1.536-7.108,2.334
			c-0.726,0.245-1.452,0.48-2.178,0.718c-0.021-0.339-0.284-4.353-1.161-5.992c-0.78-1.456-2.179-3.095-3.907-3.366
			c-1.691-0.265-3.377,0.856-3.474,2.638c-0.135,2.474,3.39,5.218,5.456,6.011c0.156,0.059,2.381,0.634,2.954,0.753
			c-1.599,0.523-3.197,1.03-4.794,1.466c-2.201,0.604-4.395,1.075-6.553,1.375c-0.01-0.158-0.265-4.349-1.164-6.027
			c-0.78-1.457-2.179-3.095-3.907-3.366c-1.692-0.266-3.377,0.856-3.474,2.638c-0.135,2.474,3.39,5.218,5.456,6.01
			c0.162,0.062,2.557,0.679,2.998,0.76c-0.128,0.018-0.259,0.05-0.387,0.066c-2.309,0.29-4.582,0.281-6.71,0.169
			c-1.236-0.063-2.414-0.192-3.558-0.344c0.032-0.785,0.142-4.377-0.501-5.977c-0.616-1.534-1.826-3.316-3.513-3.775
			c-1.652-0.449-3.451,0.48-3.744,2.241c-0.406,2.444,2.797,5.559,4.763,6.573c0.107,0.055,1.256,0.496,2.097,0.804
			c-0.515-0.076-1.048-0.145-1.54-0.228c-1.848-0.307-3.521-0.701-5.001-1.063c-0.84-0.213-1.595-0.422-2.298-0.624
			c-0.371-0.787-1.902-3.942-3.186-5.046c-1.253-1.077-3.148-2.101-4.857-1.731c-1.674,0.363-2.842,2.017-2.29,3.714
			c0.766,2.356,5.044,3.645,7.256,3.639c0.191-0.001,3.18-0.353,3.161-0.394c0,0-0.018-0.038-0.022-0.047
			c0.673,0.209,1.399,0.425,2.195,0.645c1.474,0.395,3.144,0.827,4.992,1.175c1.847,0.353,3.863,0.684,6.018,0.841
			c2.16,0.16,4.44,0.219,6.797-0.025c0.027-0.003,0.054-0.009,0.081-0.012c-0.667,0.285-2.507,1.146-2.64,1.228
			c-1.885,1.157-4.848,4.501-4.262,6.908c0.423,1.734,2.285,2.528,3.9,1.957C76.622,387.057,77.696,385.19,78.196,383.615z"/>
		<path style="fill:#92E3A9;" d="M73.593,339.81c0.03-0.034-2.724-1.249-2.906-1.305c-2.113-0.656-6.58-0.681-8.005,1.345
			c-1.026,1.46-0.396,3.384,1.097,4.222c1.524,0.856,3.637,0.435,5.151-0.227C70.708,343.069,73.59,339.812,73.593,339.81z"/>
	</g>
</g>
<g id="Earth_Globe">
	<g>
		<g>
			
				<ellipse transform="matrix(0.999 -0.0436 0.0436 0.999 -7.3111 11.0054)" style="fill:none;stroke:#263238;stroke-linecap:round;stroke-linejoin:round;stroke-miterlimit:10;" cx="248.568" cy="173.059" rx="121.015" ry="121.015"/>
			<g>
				<path style="fill:none;stroke:#263238;stroke-linecap:round;stroke-linejoin:round;stroke-miterlimit:10;" d="M224.269,285.022
					c6.433,1.401,13.03,2.253,19.726,2.516"/>
				<path style="fill:none;stroke:#263238;stroke-linecap:round;stroke-linejoin:round;stroke-miterlimit:10;" d="M209.434,280.724
					c3.28,1.196,6.62,2.244,10.012,3.138"/>
				<path style="fill:none;stroke:#263238;stroke-linecap:round;stroke-linejoin:round;stroke-miterlimit:10;" d="M138.376,141.712
					c-5.058,17.723-5.902,36.923-1.626,56.179c8.458,38.088,34.971,67.498,68.539,81.23"/>
				<path style="fill:none;stroke:#263238;stroke-linecap:round;stroke-linejoin:round;stroke-miterlimit:10;" d="M153.777,108.757
					c-4.132,6.094-7.678,12.581-10.579,19.368"/>
			</g>
			<g>
				<defs>
					<polygon id="SVGID_1_" points="232.174,119.311 244.51,121.867 248.715,126.229 254.198,127.071 255.942,132.274 
						254.664,135.794 250.925,137.507 241.767,136.01 241.517,134.889 245.848,131.867 242.858,126.353 234.665,125.23 
						230.304,121.491 					"/>
				</defs>
				<defs>
					<path id="SVGID_00000090268586016154694490000012247338116870202752_" d="M331.596,233.156l-9.782-1.653l-11.807-1.497
						l-8.692,1.93l-8.504,0.123l-8.536,3.955l-4.984,1.401l-3.085,0.685l-5.141,4.672l-5.109,3.488l-8.629-3.085l0.219-8.286
						l-5.202-0.904l-5.607,1.245l-1.402-2.337l-0.56-5.172l-2.585-2.368l-3.801,1.433l-0.499,3.053l-4.704,1.339l-5.326-4.113
						l-3.177-6.356l2.462-8.785l8.255-1.245l2.679,1.465l3.365-0.747l3.645-3.457l3.894,0.312l6.977,7.571l1.9-0.716l-1.993-6.324
						l-2.43-2.991l-0.622-5.452l9.378-6.79l-0.902-10.685l3.676-4.641l2.213-7.258l2.679-1.183l5.514-5.638l-0.218-2.305
						l-4.424,1.277l-1.339-2.056l-3.084,0.685l-4.517,2.18l1.433-4.143l9.191-4.983l1.682-3.022l5.295,5.297l3.084,1.963
						l3.676-1.993l-2.492-3.271l-6.822-2.898l-8.41-6.076l-8.068-3.21l-6.978,0.373l-4.112-2.617l-4.735-0.125l-0.312,1.246
						l1.245,8.256l1.744,2.555l-0.531,9.533l-6.604-3.241l-0.031-4.112l-6.511-1.496l-3.208-2.524l-0.155-7.321l6.823-7.694
						l-0.934-6.854l-3.022,0.965l-2.523-2.088l-1.775-4.019l-2.025,0.155l-0.125,4.735l-2.96,1.246l-3.581-9.502l-2.554-0.904
						l-4.299-0.811l-3.988,3.24l6.791,4.082l2.18,4.518l-11.775-5.329l-8.691-6.014l-2.242-7.446l-7.788-0.624l-4.798,4.89
						c0,0-2.43,2.305-3.708,3.177c-1.277,0.872-6.48,2.616-6.48,2.616l-0.063,5.016l-6.387,1.712l1.246,2.96l10.748-0.622
						l6.635,4.705l2.179,9.813l-1.154,9.377l2.616,9.128l-4.8,15.482l2.863,20.841l5.138,11.216l5.637,8.163l4.33-0.373
						l-2.398-4.175l-2.99-2.867l-2.772-5.857l2.399-1.121l6.166,9.222l4.797,8.35l1.619,7.289l6.76,5.266l11.089,4.893l15.451,0.687
						l5.42,3.21l4.361,3.739l5.732,1.963l6.542,0.312l6.106-1.65c0,0,0.343,2.866,0.654,4.268c0.311,1.402-2.556,7.04-2.556,7.04
						l-1.839,6.292l3.613,5.67l6.729,1.153l10.684,7.042l4.299,0.81l0.934,4.206l0.925,1.85
						c21.512-8.553,39.545-22.886,52.658-40.743l-0.306-2.065l4.519-15.42l-4.205-1.714L331.596,233.156z"/>
				</defs>
				<defs>
					<path id="SVGID_00000070826433722628160040000009510963109464773310_" d="M336.161,115.93l-4.267-4.642l-5.295-5.297
						l-2.989-8.162l5.233-0.28l-0.342-2.866l-3.708,0.529l2.773-2.087l2.928-2.71l-0.623-2.804l-4.361-3.739l-2.059-5.875
						c-27.546-21.673-64.234-31.268-101.12-23.076c-16.768,3.724-31.938,10.766-44.987,20.273l7.482,3.144l-2.804,5.918
						l-5.079,2.305l1.121,7.695l-2.056,1.339l-2.119,3.707l1.401,4.985l4.891-0.498l-0.904,5.202l4.767-1.059l5.827-12.18
						l-0.155-4.673l7.726-2.304l1.216-3.801l7.944-2.647l-0.217-4.953l5.826-1.588c0,0,3.708-3.177,4.549-3.364
						c0.841-0.187,5.078,0.343,5.078,0.343l4.953,2.431l5.888-1.308l4.362-4.205l6.573-0.871c0,0,1.932,0.748,3.333,0.437
						c1.402-0.311,5.172-3.208,5.172-3.208l9.252,3.241l3.925,1.776l0.934,4.205l4.33-0.373l0.841-2.834l4.018,0.873l0.218,2.305
						l-7.913,4.111l6.136,5.11l11.339,3.366l5.451,4.674l6.293-0.809l0.779-3.115l2.119-1.059l-8.535-3.989l-4.611,0.435
						l3.396-1.931l-4.423-4.019l4.704-1.339l6.916,1.995l2.896,6.418l3.894,2.96l4.329,7.571l7.165,3.116l2.055,9.253l7.383,2.774
						l0.405,3.146l-0.032,3.832l2.803,4.673l1.121,2.399l4.953-0.217l1.184-5.265L336.161,115.93z"/>
				</defs>
				<defs>
					<path id="SVGID_00000132804500167646027370000002229491993379102389_" d="M333.533,86.875l0.358,1.61l-0.406,4.797l1.713,3.739
						l3.333,0.437l1.183,5.327l-3.676-0.655l2.521,15.327l-1.995,6.916l3.986,7.352l4.392,2.555l3.362,15.141l6.26,10.966
						l5.918,8.101l6.822,0.25l0.998-6.106l0.755-0.918c-0.472-4.945-1.249-9.916-2.354-14.89
						C361.452,123.172,349.606,102.691,333.533,86.875z"/>
				</defs>
				<defs>
					<polygon id="SVGID_00000140724538944024178190000003418123243171459234_" points="268.376,99.503 248.065,95.482 
						239.996,97.568 239.217,103.331 235.042,100.433 229.186,103.205 230.68,112.582 236.536,115.106 238.998,108.969 
						244.138,112.241 254.51,117.881 257.998,125.639 267.343,133.272 278.683,128.695 277.469,124.551 273.887,120.345 
						270.835,109.254 272.581,103.865 					"/>
				</defs>
				<defs>
					<polygon id="SVGID_00000132793434629709586220000015784909534578765953_" points="284.886,102.309 280.431,102.122 
						277.471,106.016 281.24,113.711 284.885,112.901 					"/>
				</defs>
				<defs>
					<polygon id="SVGID_00000034051194958471839060000003684925367797593472_" points="312.144,101.846 301.491,98.916 
						298.781,95.988 296.724,97.327 299.933,102.498 303.234,109.415 307.813,110.163 308.405,108.855 304.948,105.209 
						312.86,106.394 					"/>
				</defs>
				<defs>
					<polygon id="SVGID_00000080200514983277316810000015733676637265422250_" points="252.751,221.245 251.879,222.615 
						260.851,223.27 265.087,226.448 270.539,225.827 271.816,222.306 265.118,222.617 					"/>
				</defs>
				<defs>
					<polygon id="SVGID_00000047061101473613159780000015520872686224534926_" points="278.888,221.03 273.374,224.02 
						274.713,226.076 282.003,224.457 282.906,221.903 280.445,222.744 					"/>
				</defs>
				<clipPath id="SVGID_00000034061772047203117620000017377390074625278135_">
					<use xlink:href="#SVGID_1_"  style="overflow:visible;"/>
				</clipPath>
				
					<clipPath id="SVGID_00000024723770091210170070000011776861817804143246_" style="clip-path:url(#SVGID_00000034061772047203117620000017377390074625278135_);">
					<use xlink:href="#SVGID_00000090268586016154694490000012247338116870202752_"  style="overflow:visible;"/>
				</clipPath>
				
					<clipPath id="SVGID_00000165956336205979854690000006823189452498696601_" style="clip-path:url(#SVGID_00000024723770091210170070000011776861817804143246_);">
					<use xlink:href="#SVGID_00000070826433722628160040000009510963109464773310_"  style="overflow:visible;"/>
				</clipPath>
				
					<clipPath id="SVGID_00000075125743146164967120000015599220157149177218_" style="clip-path:url(#SVGID_00000165956336205979854690000006823189452498696601_);">
					<use xlink:href="#SVGID_00000132804500167646027370000002229491993379102389_"  style="overflow:visible;"/>
				</clipPath>
				
					<clipPath id="SVGID_00000164504160209394519350000009527225596561922448_" style="clip-path:url(#SVGID_00000075125743146164967120000015599220157149177218_);">
					<use xlink:href="#SVGID_00000140724538944024178190000003418123243171459234_"  style="overflow:visible;"/>
				</clipPath>
				
					<clipPath id="SVGID_00000085238088471865662130000002845058554873190585_" style="clip-path:url(#SVGID_00000164504160209394519350000009527225596561922448_);">
					<use xlink:href="#SVGID_00000132793434629709586220000015784909534578765953_"  style="overflow:visible;"/>
				</clipPath>
				
					<clipPath id="SVGID_00000165945869213620162290000002960705994043191950_" style="clip-path:url(#SVGID_00000085238088471865662130000002845058554873190585_);">
					<use xlink:href="#SVGID_00000034051194958471839060000003684925367797593472_"  style="overflow:visible;"/>
				</clipPath>
				
					<clipPath id="SVGID_00000147928732920054432000000006663883852150076351_" style="clip-path:url(#SVGID_00000165945869213620162290000002960705994043191950_);">
					<use xlink:href="#SVGID_00000080200514983277316810000015733676637265422250_"  style="overflow:visible;"/>
				</clipPath>
				
					<clipPath id="SVGID_00000116200554298656269970000008367067193158866101_" style="clip-path:url(#SVGID_00000147928732920054432000000006663883852150076351_);">
					<use xlink:href="#SVGID_00000047061101473613159780000015520872686224534926_"  style="overflow:visible;"/>
				</clipPath>
				
					<use xlink:href="#SVGID_1_"  style="overflow:visible;fill:none;stroke:#263238;stroke-linecap:round;stroke-linejoin:round;stroke-miterlimit:10;"/>
				
					<use xlink:href="#SVGID_00000090268586016154694490000012247338116870202752_"  style="overflow:visible;fill:none;stroke:#263238;stroke-linecap:round;stroke-linejoin:round;stroke-miterlimit:10;"/>
				
					<use xlink:href="#SVGID_00000070826433722628160040000009510963109464773310_"  style="overflow:visible;fill:none;stroke:#263238;stroke-linecap:round;stroke-linejoin:round;stroke-miterlimit:10;"/>
				
					<use xlink:href="#SVGID_00000132804500167646027370000002229491993379102389_"  style="overflow:visible;fill:none;stroke:#263238;stroke-linecap:round;stroke-linejoin:round;stroke-miterlimit:10;"/>
				
					<use xlink:href="#SVGID_00000140724538944024178190000003418123243171459234_"  style="overflow:visible;fill:none;stroke:#263238;stroke-linecap:round;stroke-linejoin:round;stroke-miterlimit:10;"/>
				
					<use xlink:href="#SVGID_00000132793434629709586220000015784909534578765953_"  style="overflow:visible;fill:none;stroke:#263238;stroke-linecap:round;stroke-linejoin:round;stroke-miterlimit:10;"/>
				
					<use xlink:href="#SVGID_00000034051194958471839060000003684925367797593472_"  style="overflow:visible;fill:none;stroke:#263238;stroke-linecap:round;stroke-linejoin:round;stroke-miterlimit:10;"/>
				
					<use xlink:href="#SVGID_00000080200514983277316810000015733676637265422250_"  style="overflow:visible;fill:none;stroke:#263238;stroke-linecap:round;stroke-linejoin:round;stroke-miterlimit:10;"/>
				
					<use xlink:href="#SVGID_00000047061101473613159780000015520872686224534926_"  style="overflow:visible;fill:none;stroke:#263238;stroke-linecap:round;stroke-linejoin:round;stroke-miterlimit:10;"/>
			</g>
		</g>
	</g>
</g>
<g id="Character">
	<g>
		<path style="fill:#FFFFFF;stroke:#263238;stroke-miterlimit:10;" d="M291.917,436.687l-2.436,12.484c0,0-0.305,3.654,1.218,4.872
			c1.522,1.218,28.013,1.218,28.013,0c0-1.218,0.609-5.481-0.304-7.917c-0.914-2.436-3.045-10.657-3.045-10.657L291.917,436.687z"/>
		<path style="fill:#FFFFFF;stroke:#263238;stroke-miterlimit:10;" d="M289.705,452.216c0.18,0.73,0.482,1.417,0.995,1.827
			c1.522,1.218,28.013,1.218,28.013,0c0-0.371,0.057-1.028,0.109-1.827H289.705z"/>
		<path style="fill:#FFFFFF;stroke:#263238;stroke-miterlimit:10;" d="M299.834,436.383c0,0-2.74,5.785-0.305,7.003
			c2.436,1.218,9.135,1.827,10.353-0.304c1.218-2.132-1.522-6.699-1.522-6.699H299.834z"/>
	</g>
	<g>
		<g>
			<path style="fill:#FFFFFF;stroke:#263238;stroke-miterlimit:10;" d="M246.244,433.947l-6.394,7.003
				c0,0-10.962,10.048-10.353,11.266c0.609,1.218,1.218,3.045,1.218,3.045h35.625c0,0,2.131-1.827,2.131-2.74
				c0-0.914-0.609-12.789-0.609-12.789L246.244,433.947z"/>
			<path style="fill:#FFFFFF;stroke:#263238;stroke-miterlimit:10;" d="M229.653,452.545c0.553,1.193,1.063,2.716,1.063,2.716
				h35.625c0,0,1.773-1.529,2.071-2.488L229.653,452.545z"/>
		</g>
		<path style="fill:none;stroke:#263238;stroke-miterlimit:10;" d="M247.462,436.383c0,0-2.74,2.74-4.872,4.872
			c-2.131,2.131-0.609,4.567,3.654,3.654c4.263-0.913,8.526-7.003,8.526-7.003L247.462,436.383z"/>
	</g>
	<path style="fill:#263238;stroke:#263238;stroke-miterlimit:10;" d="M253.737,306.859c0,0-6.582,46.974-6.582,52.359
		s5.385,68.815,5.385,68.815l-4.787,3.291l0.299,5.984c0,0,19.747,3.291,21.243,3.291c1.496,0,2.393-0.598,2.393-0.598l-0.598-8.677
		c0,0,2.094-9.874,2.094-12.267c0-2.393-2.394-57.745-2.394-57.745l8.078-33.211l2.693-1.795l0.299,35.604l11.669,64.926
		l-1.795,7.48l2.693,4.488c0,0,6.882-0.598,13.763-0.598s10.173-2.394,10.173-2.394l-1.197-13.763l-10.472-63.43
		c0,0,6.582-52.359,6.582-53.855c0-1.496-1.496-3.59-1.496-3.59L253.737,306.859z"/>
	<path style="fill:#FFFFFF;stroke:#263238;stroke-miterlimit:10;" d="M250.074,211.56l0.983,4.422c0,0-15.722,10.563-17.196,13.511
		c-1.474,2.948,10.563,34.146,14.739,46.674s4.913,18.915,4.913,18.915l-1.228,14.739c0,0,9.58,3.93,23.829,4.176
		c14.248,0.246,24.565-3.194,28.496-4.176c3.931-0.983,9.581-4.913,9.581-4.913s-0.491-3.439-4.176-18.67
		c-3.685-15.231-5.159-27.022-5.159-27.022s-6.387-32.426-9.826-37.094c-3.439-4.667-5.404-10.318-9.335-11.3
		c-3.93-0.983-18.178-0.491-18.178-0.491l-5.404-8.352L250.074,211.56z"/>
	<path style="fill:#FFFFFF;stroke:#263238;stroke-miterlimit:10;" d="M262.848,229.247c7.355-2.101,7.843-12.937,7.518-18.989
		c-1.716,0.034-2.85,0.073-2.85,0.073l-5.404-8.352l-12.037,9.58l0.983,4.422c0,0-1.548,1.04-3.718,2.558
		C249.183,222.351,254.601,231.604,262.848,229.247z"/>
	<path style="fill:#263238;stroke:#263238;stroke-miterlimit:10;" d="M251.057,215.982c0,0,2.299,2.896,5.776,1.853
		c3.477-1.043,8.865-16.608,8.865-16.608L251.057,215.982z"/>
	<path style="fill:#FFFFFF;stroke:#263238;stroke-miterlimit:10;" d="M235.474,227.635c0,0-2.758,0.501-4.011,9.025
		c-1.253,8.523-4.512,35.598-3.259,39.609c1.253,4.011,7.771,4.763,10.278,2.006c2.507-2.758,3.51-24.819,3.51-24.819l-1.003-5.515"
		/>
	<path style="fill:#FFFFFF;stroke:#263238;stroke-miterlimit:10;" d="M229.212,255.015c-0.99,9.444-1.713,18.998-1.008,21.254
		c1.253,4.011,7.771,4.763,10.278,2.006c1.552-1.707,2.527-10.81,3.045-17.499L229.212,255.015z"/>
	<g>
		<path style="fill:#FFFFFF;stroke:#263238;stroke-miterlimit:10;" d="M291.88,235.406c0,0,15.292,20.557,19.303,23.064
			c4.011,2.507,13.788-2.005,12.284-8.273c-1.504-6.267-28.83-34.345-32.089-37.855c-3.259-3.51-14.039-2.006-14.039-2.006"/>
		<path style="fill:#FFFFFF;stroke:#263238;stroke-miterlimit:10;" d="M309.757,232.107l-10.678,12.689
			c4.545,5.778,9.951,12.328,12.105,13.674c4.011,2.507,13.788-2.005,12.284-8.273C322.772,247.3,316.559,239.743,309.757,232.107z"
			/>
	</g>
	<g>
		
			<rect x="265.056" y="250.949" transform="matrix(0.8863 -0.4632 0.4632 0.8863 -87.1443 153.7917)" style="fill:#FFFFFF;stroke:#263238;stroke-miterlimit:10;" width="9.025" height="6.769"/>
		<path style="fill:#92E3A9;stroke:#263238;stroke-miterlimit:10;" d="M289.875,257.969c0,0-5.515-5.014-11.03-4.512
			c-5.515,0.501-15.292,4.512-16.546,9.025c-1.253,4.512,4.011,30.835,11.783,33.342c7.772,2.507,22.061-4.513,24.317-11.783
			C300.655,276.771,296.894,265.239,289.875,257.969z M295.641,280.03c-1.253,3.51-14.791-14.039-14.54-19.053
			c0.251-5.014,3.76-1.504,3.76-1.504C291.379,266.241,296.894,276.52,295.641,280.03z"/>
		<path style="fill:#FFFFFF;stroke:#263238;stroke-miterlimit:10;" d="M281.75,273.055c2.069,6.679,0.369,13.139-3.797,14.43
			c-4.166,1.29-9.22-3.077-11.289-9.756s-0.369-13.139,3.797-14.43C274.626,262.008,279.681,266.376,281.75,273.055z"/>
	</g>
	<g>
		<path style="fill:#FFFFFF;stroke:#263238;stroke-miterlimit:10;" d="M315.445,247.941c0,0-6.518,4.512-7.27,5.766
			c-0.752,1.253-3.76,2.507-3.76,2.507s-4.011-1.003-7.27-2.507c-3.259-1.504-4.011-2.758-5.014-2.006
			c-1.003,0.752-8.022,8.774-8.022,10.028s6.518,8.022,7.27,8.524s5.766-1.504,7.27-2.256c1.504-0.752,3.51-1.504,3.51-1.504
			s9.526,0.501,14.791-0.752c5.264-1.254,10.529-4.513,10.529-9.526c0-5.014-7.771-11.031-7.771-11.031"/>
		<line style="fill:none;stroke:#263238;stroke-miterlimit:10;" x1="286.114" y1="263.985" x2="293.384" y2="255.712"/>
		<line style="fill:none;stroke:#263238;stroke-miterlimit:10;" x1="288.371" y1="266.994" x2="295.39" y2="258.971"/>
		<line style="fill:#FFFFFF;stroke:#263238;stroke-miterlimit:10;" x1="290.627" y1="268.748" x2="297.646" y2="262.481"/>
	</g>
	<g>
		<g>
			<g>
				<path style="fill:#FFFFFF;stroke:#263238;stroke-miterlimit:10;" d="M230.084,312.707l-0.223-7.671
					c-0.045-1.549,1.174-2.842,2.724-2.887l24.588-0.716c1.479-0.043,2.713,1.121,2.756,2.6l0.231,7.926
					c0.043,1.479-1.121,2.713-2.6,2.756l-24.588,0.716C231.421,315.475,230.129,314.256,230.084,312.707z"/>
				
					<rect x="259.791" y="305.932" transform="matrix(0.0291 0.9996 -0.9996 0.0291 562.2299 37.041)" style="fill:#FFFFFF;stroke:#263238;stroke-miterlimit:10;" width="4.512" height="4.011"/>
			</g>
		</g>
		<g>
			<path style="fill:#FFFFFF;stroke:#263238;stroke-miterlimit:10;" d="M239.516,274.765c0,0,2.256,2.966,1.676,12.991
				c-0.084,1.459,0.304,4.509,0.304,4.509s3.24,2.569,6.418,4.236c3.179,1.667,4.631,1.5,4.646,2.753
				c0.015,1.253-2.068,11.708-3.061,12.472c-0.994,0.764-10.333-0.279-11.189-0.569c-0.856-0.291-2.321-5.488-2.642-7.139
				s-0.372-7.166-0.372-7.166s-4.216-4.938-6.431-9.876c-2.215-4.938-4.053-11.059-0.078-14.115c1.238-0.952,2.82-1.106,4.412-0.868
				"/>
			<line style="fill:none;stroke:#263238;stroke-miterlimit:10;" x1="246.488" y1="311.51" x2="248.616" y2="300.705"/>
			<line style="fill:none;stroke:#263238;stroke-miterlimit:10;" x1="242.728" y1="311.555" x2="244.81" y2="301.101"/>
			<line style="fill:none;stroke:#263238;stroke-miterlimit:10;" x1="239.961" y1="310.836" x2="240.653" y2="301.451"/>
		</g>
	</g>
	<g>
		<g>
			<path style="fill:#FFFFFF;stroke:#263238;stroke-miterlimit:10;" d="M269.418,175.525c0,0,2.705-1.691,3.044,3.72
				c0.338,5.411-5.073,11.498-5.073,11.498s-0.338,5.411-1.691,10.484c-1.353,5.073-7.608,14.183-12.342,14.521
				s-15.388-8.096-17.417-12.492c-2.029-4.396-1.015-12.174-4.735-17.247c-3.72-5.073,4.058-12.175,10.145-15.895
				c6.087-3.72,16.233-5.749,18.938-4.734C262.992,166.395,269.418,175.525,269.418,175.525z"/>
			<path style="fill:none;stroke:#263238;stroke-miterlimit:10;" d="M243.864,196.278c0,0-0.826,1.239,0,3.098
				c0.826,1.859,3.717,1.239,4.337-0.206"/>
			<path style="fill:none;stroke:#263238;stroke-miterlimit:10;" d="M244.69,203.299c0,0,7.847,0.206,10.945-5.576"/>
			<path style="fill:#263238;" d="M252.268,190.347c0.471,1.285,0.418,2.486-0.118,2.682c-0.535,0.196-1.351-0.687-1.821-1.972
				c-0.471-1.285-0.418-2.486,0.118-2.682C250.982,188.179,251.798,189.062,252.268,190.347z"/>
			<path style="fill:#263238;" d="M241.112,193.072c0.449,1.293,0.377,2.493-0.162,2.68c-0.539,0.187-1.34-0.709-1.789-2.002
				c-0.449-1.293-0.377-2.492,0.162-2.68C239.862,190.883,240.663,191.779,241.112,193.072z"/>
			<path style="fill:none;stroke:#263238;stroke-miterlimit:10;" d="M236.224,189.463c0,0,0-2.478,4.13-2.272"/>
			<path style="fill:none;stroke:#263238;stroke-miterlimit:10;" d="M247.375,185.952c0,0,2.478-2.478,5.163-0.413"/>
		</g>
		<path style="fill:#263238;stroke:#263238;stroke-miterlimit:10;" d="M226.807,169.438c0,0-10.822-2.706-11.498,2.367
			c-0.676,5.073,7.44,7.102,7.44,7.102s-10.145-0.338-4.058,5.073c6.087,5.411,23.673,0.676,30.098-2.705
			c6.425-3.382,10.145-9.469,10.145-9.469s-2.706,4.396,1.014,7.44c3.72,3.044,3.72,3.044,3.72,3.044l0.338,4.396l3.044-0.338
			l-1.014-6.425c0,0,2.367-4.396,3.382-4.396c1.014,0,4.734-1.353-1.015-12.851c-5.749-11.498-16.909-12.175-27.054-8.116
			C231.203,158.616,226.807,169.438,226.807,169.438z"/>
	</g>
</g>
<g id="Waste_bin_3">
	<g>
		<g>
			<path style="fill:#263238;stroke:#263238;stroke-miterlimit:10;" d="M319.138,455.24L319.138,455.24
				c-1.449,0-2.624-1.175-2.624-2.624v-10.147c0-1.449,1.175-2.624,2.624-2.624l0,0c1.449,0,2.624,1.175,2.624,2.624v10.147
				C321.762,454.065,320.587,455.24,319.138,455.24z"/>
			<path style="fill:#263238;stroke:#263238;stroke-miterlimit:10;" d="M382.992,455.24L382.992,455.24
				c-1.449,0-2.624-1.175-2.624-2.624v-10.147c0-1.449,1.175-2.624,2.624-2.624l0,0c1.449,0,2.624,1.175,2.624,2.624v10.147
				C385.616,454.065,384.441,455.24,382.992,455.24z"/>
			<path style="fill:#81888C;stroke:#263238;stroke-miterlimit:10;" d="M322.462,444.218v5.655c0,2.834,2.297,5.131,5.13,5.131
				h47.47c2.834,0,5.131-2.297,5.131-5.131v-5.655c0-2.222,1.801-4.024,4.024-4.024h1.387c1.69,0,3.096-1.297,3.233-2.981
				l9.171-113.225h-91.973l9.171,113.225c0.136,1.684,1.543,2.981,3.233,2.981l0,0C320.66,440.195,322.462,441.996,322.462,444.218z
				"/>
			<rect x="309.866" y="320.184" style="fill:#81888C;stroke:#263238;stroke-miterlimit:10;" width="86.072" height="3.849"/>
			<rect x="303.366" y="323.155" style="fill:#81888C;stroke:#263238;stroke-miterlimit:10;" width="97.607" height="9.171"/>
		</g>
		<g>
			<path style="fill:#FFFFFF;" d="M360.17,345.934c0.886,0.295,1.785,0.599,2.454,1.272c0.52,0.524,1.012,1.106,1.385,1.74
				c0.822,1.396,1.56,2.841,2.361,4.318c1.099-0.569,2.18-1.129,3.26-1.689c0.018,0.019,0.037,0.038,0.055,0.057
				c-0.52,0.861-1.038,1.722-1.559,2.582c-1.285,2.121-2.575,4.239-3.852,6.365c-0.151,0.251-0.304,0.373-0.62,0.369
				c-3.324-0.045-6.648-0.071-9.972-0.103c-0.07-0.001-0.14-0.013-0.33-0.032c1.031-0.671,1.964-1.277,2.928-1.904
				c-0.483-0.889-0.948-1.751-1.419-2.609c-1.035-1.887-2.039-3.792-3.118-5.653c-1.202-2.074-2.791-3.748-5.135-4.632
				c0.374,0,0.747,0,1.121,0c0.39,0,0.781,0.009,1.171-0.004c0.352-0.012,0.702-0.051,1.054-0.077
				C353.358,345.934,356.764,345.934,360.17,345.934z"/>
			<path style="fill:#FFFFFF;" d="M328.675,370.492c1.106-2.214,2.213-4.428,3.341-6.685c-0.975-0.764-1.978-1.549-3.068-2.404
				c0.221-0.023,0.346-0.047,0.471-0.048c3.389-0.025,6.777-0.043,10.166-0.078c0.326-0.003,0.491,0.102,0.646,0.392
				c1.664,3.108,3.345,6.207,5.021,9.309c0.049,0.091,0.086,0.19,0.173,0.387c-1.083-0.582-2.075-1.115-3.114-1.673
				c-0.588,0.96-1.164,1.901-1.74,2.842c-0.733,1.198-1.473,2.392-2.195,3.596c-0.153,0.255-0.319,0.382-0.632,0.354
				c-1.427-0.131-2.883-0.109-4.277-0.395c-2.354-0.482-3.97-1.925-4.721-4.256c-0.014-0.043-0.046-0.081-0.069-0.122
				C328.675,371.305,328.675,370.898,328.675,370.492z"/>
			<path style="fill:#FFFFFF;" d="M375.542,371.898c-0.869,2.821-3.203,3.688-5.736,4.185c-1.184,0.232-2.417,0.223-3.63,0.286
				c-0.183,0.009-0.468-0.131-0.553-0.286c-1.56-2.846-3.096-5.705-4.636-8.561c-0.036-0.066-0.061-0.139-0.111-0.253
				c3.338-2.037,6.662-4.066,10.04-6.128c0.283,0.558,0.549,1.081,0.815,1.604c1.098,2.155,2.199,4.308,3.291,6.466
				c0.195,0.385,0.347,0.791,0.52,1.188C375.542,370.898,375.542,371.398,375.542,371.898z"/>
			<path style="fill:#FFFFFF;" d="M358.617,373.788c0.05,0.962,0.117,1.925,0.142,2.888c0.01,0.384,0.095,0.545,0.526,0.542
				c2.67-0.019,5.34,0.011,8.009-0.017c1.676-0.018,3.348-0.177,4.88-0.923c0.818-0.398,1.567-0.939,2.321-1.399
				c-0.2,0.385-0.431,0.842-0.673,1.295c-1.765,3.3-3.527,6.602-5.302,9.897c-1.035,1.921-2.694,2.84-4.843,2.88
				c-1.621,0.03-3.243,0.006-4.991,0.006c0,1.245,0,2.464,0,3.684c-0.058,0.008-0.116,0.017-0.175,0.026
				c-0.409-0.744-0.82-1.487-1.227-2.231c-1.265-2.311-2.533-4.621-3.782-6.941c-0.091-0.17-0.124-0.466-0.038-0.623
				c1.631-2.983,3.284-5.955,4.933-8.928c0.036-0.065,0.082-0.125,0.124-0.187C358.552,373.766,358.585,373.777,358.617,373.788z"/>
			<path style="fill:#FFFFFF;" d="M329.527,374.721c1.887,1.798,4.131,2.41,6.668,2.388c4.293-0.037,8.587,0.029,12.881,0.056
				c0.217,0.001,0.434,0.038,0.681,0.061c0,3.91,0,7.804,0,11.725c-0.098,0.012-0.186,0.033-0.275,0.033
				c-2.826-0.008-5.654,0.03-8.479-0.045c-1.641-0.043-3.228-0.41-4.483-1.6c-0.211-0.2-0.399-0.441-0.538-0.696
				c-2.112-3.877-4.213-7.759-6.316-11.641C329.615,374.91,329.573,374.815,329.527,374.721z"/>
			<path style="fill:#FFFFFF;" d="M346.775,361.879c-3.381-2.003-6.721-3.981-10.112-5.989c0.316-0.494,0.614-0.964,0.917-1.431
				c1.419-2.186,2.834-4.375,4.261-6.555c0.801-1.224,2.478-1.779,4.03-1.359c1.099,0.297,2.009,0.923,2.831,1.679
				c1.421,1.305,2.485,2.877,3.34,4.595c0.068,0.137,0.083,0.376,0.008,0.499c-1.694,2.786-3.405,5.563-5.113,8.341
				C346.898,361.724,346.847,361.782,346.775,361.879z"/>
		</g>
		<g>
			<path style="fill:#FFFFFF;" d="M343.282,402.458v0.836h-1.031v-0.892c0-0.877-0.348-1.407-1.143-1.407
				c-0.78,0-1.142,0.53-1.142,1.407v5.154c0,0.877,0.362,1.407,1.142,1.407c0.794,0,1.143-0.53,1.143-1.407v-1.95h-1.004v-0.975
				h2.034v2.869c0,1.477-0.697,2.452-2.201,2.452c-1.49,0-2.187-0.975-2.187-2.452v-5.043c0-1.476,0.697-2.452,2.187-2.452
				C342.585,400.006,343.282,400.982,343.282,402.458z"/>
			<path style="fill:#FFFFFF;" d="M344.313,409.855v-9.75h1.087v8.761h2.786v0.989H344.313z"/>
			<path style="fill:#FFFFFF;" d="M350.109,407.89l-0.376,1.964h-1.003l1.866-9.75h1.574l1.866,9.75h-1.086l-0.376-1.964H350.109z
				 M350.248,406.958h2.172l-1.101-5.628L350.248,406.958z"/>
			<path style="fill:#FFFFFF;" d="M359.108,402.445v0.264h-1.031v-0.319c0-0.878-0.334-1.393-1.114-1.393
				c-0.78,0-1.115,0.515-1.115,1.379c0,2.187,3.274,2.396,3.274,5.139c0,1.477-0.711,2.438-2.201,2.438
				c-1.49,0-2.187-0.961-2.187-2.438v-0.556h1.017v0.612c0,0.878,0.362,1.393,1.142,1.393c0.78,0,1.142-0.515,1.142-1.393
				c0-2.172-3.259-2.382-3.259-5.125c0-1.505,0.697-2.438,2.159-2.438C358.411,400.006,359.108,400.968,359.108,402.445z"/>
			<path style="fill:#FFFFFF;" d="M364.291,402.445v0.264h-1.031v-0.319c0-0.878-0.334-1.393-1.114-1.393
				c-0.78,0-1.115,0.515-1.115,1.379c0,2.187,3.274,2.396,3.274,5.139c0,1.477-0.711,2.438-2.201,2.438s-2.187-0.961-2.187-2.438
				v-0.556h1.017v0.612c0,0.878,0.362,1.393,1.142,1.393c0.78,0,1.142-0.515,1.142-1.393c0-2.172-3.259-2.382-3.259-5.125
				c0-1.505,0.697-2.438,2.159-2.438C363.594,400.006,364.291,400.968,364.291,402.445z"/>
		</g>
	</g>
</g>
<g id="Waste_bin_2">
	<g>
		<g>
			<path style="fill:#263238;stroke:#263238;stroke-miterlimit:10;" d="M215.635,455.24L215.635,455.24
				c-1.449,0-2.624-1.175-2.624-2.624v-10.147c0-1.449,1.175-2.624,2.624-2.624l0,0c1.449,0,2.624,1.175,2.624,2.624v10.147
				C218.259,454.065,217.085,455.24,215.635,455.24z"/>
			<path style="fill:#263238;stroke:#263238;stroke-miterlimit:10;" d="M279.489,455.24L279.489,455.24
				c-1.449,0-2.624-1.175-2.624-2.624v-10.147c0-1.449,1.175-2.624,2.624-2.624l0,0c1.449,0,2.624,1.175,2.624,2.624v10.147
				C282.114,454.065,280.939,455.24,279.489,455.24z"/>
			<path style="fill:#92E3A9;stroke:#263238;stroke-miterlimit:10;" d="M218.959,444.218v5.655c0,2.834,2.297,5.131,5.13,5.131
				h47.47c2.833,0,5.13-2.297,5.13-5.131v-5.655c0-2.222,1.801-4.024,4.024-4.024h1.387c1.69,0,3.096-1.297,3.233-2.981
				l9.171-113.225h-91.973l9.171,113.225c0.136,1.684,1.543,2.981,3.233,2.981l0,0C217.158,440.195,218.959,441.996,218.959,444.218
				z"/>
			<rect x="206.363" y="320.184" style="fill:#92E3A9;stroke:#263238;stroke-miterlimit:10;" width="86.072" height="3.849"/>
			<rect x="199.864" y="323.155" style="fill:#92E3A9;stroke:#263238;stroke-miterlimit:10;" width="97.607" height="9.171"/>
		</g>
		<g>
			<path style="fill:#FFFFFF;" d="M256.667,345.934c0.886,0.295,1.785,0.599,2.454,1.272c0.52,0.524,1.012,1.106,1.385,1.74
				c0.822,1.396,1.56,2.841,2.361,4.318c1.099-0.569,2.18-1.129,3.261-1.689c0.018,0.019,0.037,0.038,0.055,0.057
				c-0.52,0.861-1.038,1.722-1.559,2.582c-1.285,2.121-2.575,4.239-3.852,6.365c-0.151,0.251-0.304,0.373-0.62,0.369
				c-3.324-0.045-6.648-0.071-9.972-0.103c-0.07-0.001-0.14-0.013-0.33-0.032c1.031-0.671,1.964-1.277,2.928-1.904
				c-0.483-0.889-0.948-1.751-1.419-2.609c-1.035-1.887-2.039-3.792-3.118-5.653c-1.202-2.074-2.791-3.748-5.135-4.632
				c0.374,0,0.747,0,1.121,0c0.39,0,0.781,0.009,1.171-0.004c0.352-0.012,0.702-0.051,1.054-0.077
				C249.856,345.934,253.261,345.934,256.667,345.934z"/>
			<path style="fill:#FFFFFF;" d="M225.172,370.492c1.106-2.214,2.213-4.428,3.341-6.685c-0.975-0.764-1.977-1.549-3.068-2.404
				c0.221-0.023,0.346-0.047,0.471-0.048c3.389-0.025,6.777-0.043,10.166-0.078c0.326-0.003,0.491,0.102,0.646,0.392
				c1.664,3.108,3.346,6.207,5.021,9.309c0.049,0.091,0.086,0.19,0.173,0.387c-1.083-0.582-2.075-1.115-3.114-1.673
				c-0.588,0.96-1.164,1.901-1.74,2.842c-0.733,1.198-1.473,2.392-2.195,3.596c-0.153,0.255-0.319,0.382-0.632,0.354
				c-1.427-0.131-2.883-0.109-4.277-0.395c-2.354-0.482-3.97-1.925-4.721-4.256c-0.014-0.043-0.046-0.081-0.069-0.122
				C225.172,371.305,225.172,370.898,225.172,370.492z"/>
			<path style="fill:#FFFFFF;" d="M272.04,371.898c-0.869,2.821-3.203,3.688-5.736,4.185c-1.184,0.232-2.417,0.223-3.63,0.286
				c-0.183,0.009-0.468-0.131-0.553-0.286c-1.559-2.846-3.096-5.705-4.636-8.561c-0.036-0.066-0.061-0.139-0.111-0.253
				c3.338-2.037,6.662-4.066,10.04-6.128c0.283,0.558,0.549,1.081,0.815,1.604c1.098,2.155,2.199,4.308,3.291,6.466
				c0.195,0.385,0.348,0.791,0.52,1.188C272.04,370.898,272.04,371.398,272.04,371.898z"/>
			<path style="fill:#FFFFFF;" d="M255.115,373.788c0.05,0.962,0.117,1.925,0.142,2.888c0.01,0.384,0.095,0.545,0.526,0.542
				c2.67-0.019,5.34,0.011,8.009-0.017c1.676-0.018,3.348-0.177,4.88-0.923c0.818-0.398,1.567-0.939,2.321-1.399
				c-0.2,0.385-0.431,0.842-0.673,1.295c-1.765,3.3-3.527,6.602-5.302,9.897c-1.035,1.921-2.694,2.84-4.843,2.88
				c-1.621,0.03-3.243,0.006-4.991,0.006c0,1.245,0,2.464,0,3.684c-0.058,0.008-0.117,0.017-0.175,0.026
				c-0.409-0.744-0.82-1.487-1.227-2.231c-1.265-2.311-2.533-4.621-3.782-6.941c-0.091-0.17-0.124-0.466-0.038-0.623
				c1.631-2.983,3.284-5.955,4.933-8.928c0.036-0.065,0.082-0.125,0.123-0.187C255.049,373.766,255.082,373.777,255.115,373.788z"/>
			<path style="fill:#FFFFFF;" d="M226.024,374.721c1.887,1.798,4.131,2.41,6.668,2.388c4.293-0.037,8.587,0.029,12.881,0.056
				c0.217,0.001,0.434,0.038,0.681,0.061c0,3.91,0,7.804,0,11.725c-0.097,0.012-0.186,0.033-0.275,0.033
				c-2.826-0.008-5.654,0.03-8.479-0.045c-1.641-0.043-3.228-0.41-4.483-1.6c-0.211-0.2-0.399-0.441-0.538-0.696
				c-2.111-3.877-4.213-7.759-6.316-11.641C226.112,374.91,226.07,374.815,226.024,374.721z"/>
			<path style="fill:#FFFFFF;" d="M243.272,361.879c-3.381-2.003-6.721-3.981-10.112-5.989c0.316-0.494,0.614-0.964,0.917-1.431
				c1.419-2.186,2.834-4.375,4.261-6.555c0.801-1.224,2.477-1.779,4.03-1.359c1.099,0.297,2.009,0.923,2.831,1.679
				c1.421,1.305,2.485,2.877,3.34,4.595c0.068,0.137,0.083,0.376,0.008,0.499c-1.694,2.786-3.404,5.563-5.113,8.341
				C243.395,361.724,243.344,361.782,243.272,361.879z"/>
		</g>
		<g>
			<path style="fill:#FFFFFF;" d="M235.405,400.104c1.532,0,2.187,0.906,2.187,2.382v1.171c0,1.546-0.724,2.354-2.27,2.354h-0.961
				v3.844h-1.087v-9.75H235.405z M235.321,405.035c0.808,0,1.198-0.376,1.198-1.31v-1.296c0-0.891-0.32-1.337-1.115-1.337h-1.044
				v3.942H235.321z"/>
			<path style="fill:#FFFFFF;" d="M238.442,409.855v-9.75h1.087v8.761h2.786v0.989H238.442z"/>
			<path style="fill:#FFFFFF;" d="M244.238,407.89l-0.376,1.964h-1.003l1.866-9.75h1.574l1.867,9.75h-1.087l-0.376-1.964H244.238z
				 M244.377,406.958h2.173l-1.101-5.628L244.377,406.958z"/>
			<path style="fill:#FFFFFF;" d="M253.238,402.445v0.264h-1.031v-0.319c0-0.878-0.334-1.393-1.114-1.393
				c-0.78,0-1.115,0.515-1.115,1.379c0,2.187,3.274,2.396,3.274,5.139c0,1.477-0.71,2.438-2.201,2.438
				c-1.491,0-2.187-0.961-2.187-2.438v-0.556h1.017v0.612c0,0.878,0.362,1.393,1.142,1.393c0.78,0,1.142-0.515,1.142-1.393
				c0-2.172-3.259-2.382-3.259-5.125c0-1.505,0.697-2.438,2.159-2.438C252.541,400.006,253.238,400.968,253.238,402.445z"/>
			<path style="fill:#FFFFFF;" d="M255.606,409.855v-8.761h-1.797v-0.989h4.667v0.989h-1.797v8.761H255.606z"/>
			<path style="fill:#FFFFFF;" d="M260.302,400.104v9.75h-1.087v-9.75H260.302z"/>
			<path style="fill:#FFFFFF;" d="M265.721,402.458v0.878h-1.031v-0.934c0-0.877-0.348-1.407-1.142-1.407
				c-0.78,0-1.142,0.53-1.142,1.407v5.154c0,0.877,0.362,1.407,1.142,1.407c0.794,0,1.142-0.53,1.142-1.407v-1.268h1.031v1.212
				c0,1.477-0.697,2.452-2.201,2.452c-1.49,0-2.187-0.975-2.187-2.452v-5.043c0-1.476,0.697-2.452,2.187-2.452
				C265.024,400.006,265.721,400.982,265.721,402.458z"/>
		</g>
	</g>
</g>
<g id="Waste_bin_1">
	<g>
		<g>
			<path style="fill:#263238;stroke:#263238;stroke-miterlimit:10;" d="M110.168,455.24L110.168,455.24
				c-1.449,0-2.624-1.175-2.624-2.624v-10.147c0-1.449,1.175-2.624,2.624-2.624l0,0c1.449,0,2.624,1.175,2.624,2.624v10.147
				C112.792,454.065,111.617,455.24,110.168,455.24z"/>
			<path style="fill:#263238;stroke:#263238;stroke-miterlimit:10;" d="M174.022,455.24L174.022,455.24
				c-1.449,0-2.624-1.175-2.624-2.624v-10.147c0-1.449,1.175-2.624,2.624-2.624l0,0c1.449,0,2.624,1.175,2.624,2.624v10.147
				C176.646,454.065,175.471,455.24,174.022,455.24z"/>
			<path style="fill:#263238;stroke:#263238;stroke-miterlimit:10;" d="M113.492,444.218v5.655c0,2.834,2.297,5.131,5.13,5.131
				h47.47c2.833,0,5.13-2.297,5.13-5.131v-5.655c0-2.222,1.801-4.024,4.024-4.024h1.387c1.69,0,3.096-1.297,3.233-2.981
				l9.171-113.225H97.064l9.171,113.225c0.136,1.684,1.543,2.981,3.233,2.981l0,0C111.69,440.195,113.492,441.996,113.492,444.218z"
				/>
			<rect x="100.896" y="320.184" style="fill:#263238;stroke:#263238;stroke-miterlimit:10;" width="86.072" height="3.849"/>
			<rect x="94.396" y="323.155" style="fill:#263238;stroke:#263238;stroke-miterlimit:10;" width="97.607" height="9.171"/>
		</g>
		<g>
			<path style="fill:#FFFFFF;" d="M151.199,345.934c0.886,0.295,1.785,0.599,2.454,1.272c0.52,0.524,1.012,1.106,1.385,1.74
				c0.822,1.396,1.56,2.841,2.361,4.318c1.099-0.569,2.18-1.129,3.26-1.689c0.018,0.019,0.037,0.038,0.055,0.057
				c-0.52,0.861-1.038,1.722-1.559,2.582c-1.285,2.121-2.575,4.239-3.852,6.365c-0.151,0.251-0.304,0.373-0.62,0.369
				c-3.324-0.045-6.648-0.071-9.972-0.103c-0.07-0.001-0.14-0.013-0.33-0.032c1.031-0.671,1.964-1.277,2.928-1.904
				c-0.483-0.889-0.948-1.751-1.419-2.609c-1.035-1.887-2.039-3.792-3.118-5.653c-1.202-2.074-2.791-3.748-5.135-4.632
				c0.374,0,0.747,0,1.121,0c0.39,0,0.781,0.009,1.171-0.004c0.352-0.012,0.702-0.051,1.054-0.077
				C144.388,345.934,147.794,345.934,151.199,345.934z"/>
			<path style="fill:#FFFFFF;" d="M119.704,370.492c1.106-2.214,2.213-4.428,3.341-6.685c-0.976-0.764-1.978-1.549-3.068-2.404
				c0.221-0.023,0.345-0.047,0.47-0.048c3.389-0.025,6.778-0.043,10.166-0.078c0.326-0.003,0.491,0.102,0.646,0.392
				c1.664,3.108,3.346,6.207,5.021,9.309c0.049,0.091,0.086,0.19,0.173,0.387c-1.083-0.582-2.075-1.115-3.114-1.673
				c-0.588,0.96-1.164,1.901-1.74,2.842c-0.733,1.198-1.473,2.392-2.195,3.596c-0.153,0.255-0.319,0.382-0.632,0.354
				c-1.427-0.131-2.883-0.109-4.277-0.395c-2.355-0.482-3.97-1.925-4.722-4.256c-0.014-0.043-0.046-0.081-0.069-0.122
				C119.704,371.305,119.704,370.898,119.704,370.492z"/>
			<path style="fill:#FFFFFF;" d="M166.572,371.898c-0.869,2.821-3.203,3.688-5.736,4.185c-1.184,0.232-2.417,0.223-3.63,0.286
				c-0.183,0.009-0.468-0.131-0.553-0.286c-1.559-2.846-3.096-5.705-4.636-8.561c-0.036-0.066-0.061-0.139-0.111-0.253
				c3.338-2.037,6.663-4.066,10.04-6.128c0.283,0.558,0.549,1.081,0.815,1.604c1.098,2.155,2.199,4.308,3.291,6.466
				c0.195,0.385,0.348,0.791,0.52,1.188C166.572,370.898,166.572,371.398,166.572,371.898z"/>
			<path style="fill:#FFFFFF;" d="M149.647,373.788c0.05,0.962,0.117,1.925,0.142,2.888c0.01,0.384,0.096,0.545,0.526,0.542
				c2.67-0.019,5.34,0.011,8.009-0.017c1.676-0.018,3.348-0.177,4.88-0.923c0.818-0.398,1.567-0.939,2.321-1.399
				c-0.199,0.385-0.431,0.842-0.673,1.295c-1.766,3.3-3.527,6.602-5.302,9.897c-1.035,1.921-2.694,2.84-4.843,2.88
				c-1.621,0.03-3.243,0.006-4.991,0.006c0,1.245,0,2.464,0,3.684c-0.058,0.008-0.117,0.017-0.175,0.026
				c-0.409-0.744-0.82-1.487-1.228-2.231c-1.265-2.311-2.533-4.621-3.782-6.941c-0.091-0.17-0.124-0.466-0.038-0.623
				c1.631-2.983,3.284-5.955,4.933-8.928c0.036-0.065,0.082-0.125,0.124-0.187C149.582,373.766,149.614,373.777,149.647,373.788z"/>
			<path style="fill:#FFFFFF;" d="M120.557,374.721c1.887,1.798,4.131,2.41,6.668,2.388c4.293-0.037,8.587,0.029,12.881,0.056
				c0.217,0.001,0.433,0.038,0.681,0.061c0,3.91,0,7.804,0,11.725c-0.098,0.012-0.186,0.033-0.275,0.033
				c-2.826-0.008-5.654,0.03-8.479-0.045c-1.641-0.043-3.228-0.41-4.483-1.6c-0.211-0.2-0.399-0.441-0.538-0.696
				c-2.111-3.877-4.213-7.759-6.316-11.641C120.645,374.91,120.602,374.815,120.557,374.721z"/>
			<path style="fill:#FFFFFF;" d="M137.805,361.879c-3.381-2.003-6.721-3.981-10.112-5.989c0.316-0.494,0.614-0.964,0.917-1.431
				c1.419-2.186,2.834-4.375,4.261-6.555c0.801-1.224,2.477-1.779,4.03-1.359c1.099,0.297,2.009,0.923,2.831,1.679
				c1.421,1.305,2.485,2.877,3.34,4.595c0.068,0.137,0.082,0.376,0.008,0.499c-1.694,2.786-3.404,5.563-5.113,8.341
				C137.927,361.724,137.876,361.782,137.805,361.879z"/>
		</g>
		<g>
			<path style="fill:#FFFFFF;" d="M132.872,400.104c1.532,0,2.187,0.906,2.187,2.382v1.171c0,1.546-0.725,2.354-2.27,2.354h-0.961
				v3.844h-1.087v-9.75H132.872z M132.788,405.035c0.808,0,1.198-0.376,1.198-1.31v-1.296c0-0.891-0.32-1.337-1.115-1.337h-1.044
				v3.942H132.788z"/>
			<path style="fill:#FFFFFF;" d="M136.829,407.89l-0.376,1.964h-1.003l1.866-9.75h1.574l1.867,9.75h-1.087l-0.376-1.964H136.829z
				 M136.968,406.958h2.173l-1.101-5.628L136.968,406.958z"/>
			<path style="fill:#FFFFFF;" d="M143.739,400.104c1.532,0,2.187,0.906,2.187,2.382v1.171c0,1.546-0.725,2.354-2.27,2.354h-0.961
				v3.844h-1.087v-9.75H143.739z M143.656,405.035c0.808,0,1.198-0.376,1.198-1.31v-1.296c0-0.891-0.32-1.337-1.115-1.337h-1.045
				v3.942H143.656z"/>
			<path style="fill:#FFFFFF;" d="M150.245,404.422v0.975h-2.382v3.468h2.925v0.989h-4.012v-9.75h4.012v0.989h-2.925v3.329H150.245z
				"/>
			<path style="fill:#FFFFFF;" d="M153.965,400.104c1.533,0,2.173,0.78,2.173,2.229v0.794c0,1.073-0.376,1.741-1.212,2.005
				c0.891,0.265,1.226,0.989,1.226,2.033v1.519c0,0.432,0.014,0.836,0.195,1.17h-1.1c-0.125-0.278-0.181-0.53-0.181-1.184v-1.532
				c0-1.1-0.516-1.448-1.421-1.448h-0.766v4.165h-1.087v-9.75H153.965z M153.686,404.701c0.864,0,1.379-0.278,1.379-1.337v-0.934
				c0-0.877-0.32-1.337-1.128-1.337h-1.058v3.607H153.686z"/>
		</g>
	</g>
</g>
<g id="Floor">
	<g>
		
			<line style="fill:none;stroke:#263238;stroke-linecap:round;stroke-linejoin:round;stroke-miterlimit:10;" x1="462" y1="455.24" x2="486" y2="455.24"/>
		
			<line style="fill:none;stroke:#263238;stroke-linecap:round;stroke-linejoin:round;stroke-miterlimit:10;" x1="27" y1="455.24" x2="455" y2="455.24"/>
	</g>
</g>
</svg>
