<?xml version="1.0" encoding="UTF-8"?>
<!DOCTYPE svg PUBLIC "-//W3C//DTD SVG 1.1//EN" "http://www.w3.org/Graphics/SVG/1.1/DTD/svg11.dtd">
<svg xmlns="http://www.w3.org/2000/svg" version="1.1" width="800px" height="800px" style="shape-rendering:geometricPrecision; text-rendering:geometricPrecision; image-rendering:optimizeQuality; fill-rule:evenodd; clip-rule:evenodd" xmlns:xlink="http://www.w3.org/1999/xlink">
<g><path style="opacity:1" fill="#fefefe" d="M -0.5,-0.5 C 266.167,-0.5 532.833,-0.5 799.5,-0.5C 799.5,266.167 799.5,532.833 799.5,799.5C 532.833,799.5 266.167,799.5 -0.5,799.5C -0.5,532.833 -0.5,266.167 -0.5,-0.5 Z"/></g>
<g><path style="opacity:1" fill="#039989" d="M 335.5,89.5 C 334.17,95.463 333.504,101.796 333.5,108.5C 333.5,115.009 333.834,121.342 334.5,127.5C 335.173,183.164 335.506,238.831 335.5,294.5C 327.471,298.462 319.137,301.962 310.5,305C 287.394,312.356 264.394,319.856 241.5,327.5C 242.423,325.233 243.256,322.9 244,320.5C 244.667,284.167 244.667,247.833 244,211.5C 242.793,175.182 238.793,139.182 232,103.5C 229.398,89.0166 224.064,75.6833 216,63.5C 213.914,60.9061 211.414,58.9061 208.5,57.5C 237.5,56.8333 266.5,56.1667 295.5,55.5C 379.293,56.1489 462.96,53.3156 546.5,47C 554.182,45.7597 561.849,44.4264 569.5,43C 572.903,42.4217 576.07,41.2551 579,39.5C 580.368,44.3986 581.368,49.3986 582,54.5C 583.447,69.856 585.114,85.1893 587,100.5C 587.96,113.262 587.627,125.929 586,138.5C 571.945,108.542 548.445,91.3758 515.5,87C 455.486,86.7251 395.486,87.5584 335.5,89.5 Z"/></g>
<g><path style="opacity:1" fill="#3eb1a5" d="M 295.5,55.5 C 266.5,56.1667 237.5,56.8333 208.5,57.5C 206.914,56.8519 205.247,56.3519 203.5,56C 234.165,55.5 264.832,55.3334 295.5,55.5 Z"/></g>
<g><path style="opacity:1" fill="#8ed1ca" d="M 335.5,89.5 C 334.52,102.087 334.187,114.754 334.5,127.5C 333.834,121.342 333.5,115.009 333.5,108.5C 333.504,101.796 334.17,95.463 335.5,89.5 Z"/></g>
<g><path style="opacity:1" fill="#aabf5e" d="M 241.5,327.5 C 264.394,319.856 287.394,312.356 310.5,305C 319.137,301.962 327.471,298.462 335.5,294.5C 346.742,288.54 357.742,282.04 368.5,275C 392.524,261.215 417.857,250.548 444.5,243C 499.25,232.744 552.917,236.744 605.5,255C 616.384,259.396 626.717,264.729 636.5,271C 604.383,279.037 574.05,291.37 545.5,308C 512.76,336.539 475.094,355.872 432.5,366C 414.814,369.161 397.147,369.161 379.5,366C 374.617,365.114 369.95,363.614 365.5,361.5C 402.396,351.379 437.396,336.879 470.5,318C 483.955,309.545 495.122,298.712 504,285.5C 505.436,282.526 506.436,279.526 507,276.5C 471.571,301.624 432.405,318.124 389.5,326C 296.286,327.833 215.453,360 147,422.5C 167.878,380.454 199.378,348.788 241.5,327.5 Z"/></g>
<g><path style="opacity:1" fill="#019989" d="M 592.5,614.5 C 458.332,614.833 324.332,614.5 190.5,613.5C 217.12,598.005 233.62,575.005 240,544.5C 241.108,538.853 242.108,533.186 243,527.5C 243.333,482.833 243.667,438.167 244,393.5C 272.409,375.103 303.576,365.437 337.5,364.5C 334.202,433.835 330.868,503.168 327.5,572.5C 378.168,572.667 428.834,572.5 479.5,572C 509.855,569.437 537.855,560.104 563.5,544C 575.864,535.639 585.364,524.805 592,511.5C 592.5,545.832 592.667,580.165 592.5,614.5 Z"/></g>
<g><path style="opacity:1" fill="#bfe5e1" d="M 190.5,613.5 C 324.332,614.5 458.332,614.833 592.5,614.5C 458.333,615.833 323.999,615.833 189.5,614.5C 189.624,613.893 189.957,613.56 190.5,613.5 Z"/></g>
<g><path style="opacity:1" fill="#0d9a8b" d="M 295.5,704.5 C 289.926,706.453 283.926,707.12 277.5,706.5C 275.989,702.824 273.323,700.324 269.5,699C 256.168,697.649 247.668,703.483 244,716.5C 241.772,733.612 248.939,740.112 265.5,736C 268.828,734.521 271.494,732.355 273.5,729.5C 279.69,729.177 285.69,729.51 291.5,730.5C 281.527,748.648 266.194,755.815 245.5,752C 236,749.167 229.833,743 227,733.5C 224.097,708.785 234.264,692.285 257.5,684C 264.167,683.333 270.833,683.333 277.5,684C 287.989,686.984 293.989,693.817 295.5,704.5 Z"/></g>
<g><path style="opacity:1" fill="#109b8b" d="M 333.5,682.5 C 359.205,680.378 371.705,692.045 371,717.5C 368.047,737.119 356.88,748.952 337.5,753C 309.749,754.397 297.916,741.23 302,713.5C 306.422,696.911 316.922,686.577 333.5,682.5 Z"/></g>
<g><path style="opacity:1" fill="#bbe4e0" d="M 476.5,684.5 C 491.991,683.504 507.658,683.17 523.5,683.5C 523.737,684.791 523.404,685.791 522.5,686.5C 507.536,684.516 492.203,683.849 476.5,684.5 Z"/></g>
<g><path style="opacity:1" fill="#0e9b8b" d="M 195.5,708.5 C 194.596,709.209 194.263,710.209 194.5,711.5C 202.243,710.87 209.576,711.537 216.5,713.5C 215.841,716.455 215.508,719.455 215.5,722.5C 207.734,723.137 200.067,723.804 192.5,724.5C 191.407,728.394 190.74,732.394 190.5,736.5C 189.596,737.209 189.263,738.209 189.5,739.5C 198.234,738.865 206.567,739.532 214.5,741.5C 214.048,744.876 213.382,748.209 212.5,751.5C 198.516,752.499 184.516,752.833 170.5,752.5C 174.686,729.533 178.686,706.533 182.5,683.5C 196.5,683.5 210.5,683.5 224.5,683.5C 224.374,687.923 223.707,692.256 222.5,696.5C 213.859,697.498 205.192,697.831 196.5,697.5C 196.058,701.154 195.724,704.821 195.5,708.5 Z"/></g>
<g><path style="opacity:1" fill="#169c8d" d="M 387.5,684.5 C 390.5,684.5 393.5,684.5 396.5,684.5C 393.356,704.838 390.023,725.171 386.5,745.5C 394.5,745.5 402.5,745.5 410.5,745.5C 410.007,747.806 409.674,750.139 409.5,752.5C 398.5,752.5 387.5,752.5 376.5,752.5C 379.912,729.778 383.578,707.111 387.5,684.5 Z"/></g>
<g><path style="opacity:1" fill="#1a9d8d" d="M 431.5,683.5 C 443.5,683.5 455.5,683.5 467.5,683.5C 467.167,686.167 466.833,688.833 466.5,691.5C 457.167,691.5 447.833,691.5 438.5,691.5C 437.336,699.153 436.336,706.82 435.5,714.5C 443.5,714.5 451.5,714.5 459.5,714.5C 459.326,716.861 458.993,719.194 458.5,721.5C 450.167,721.5 441.833,721.5 433.5,721.5C 432.006,729.441 430.673,737.441 429.5,745.5C 438.5,745.5 447.5,745.5 456.5,745.5C 456.5,747.833 456.5,750.167 456.5,752.5C 444.167,752.5 431.833,752.5 419.5,752.5C 422.734,729.334 426.734,706.334 431.5,683.5 Z"/></g>
<g><path style="opacity:1" fill="#159c8d" d="M 476.5,684.5 C 492.203,683.849 507.536,684.516 522.5,686.5C 522.5,688.167 522.5,689.833 522.5,691.5C 515.833,691.5 509.167,691.5 502.5,691.5C 499.334,711.491 496.167,731.491 493,751.5C 489.875,752.787 486.709,752.787 483.5,751.5C 487.112,731.552 490.445,711.552 493.5,691.5C 487.5,691.5 481.5,691.5 475.5,691.5C 475.674,689.139 476.007,686.806 476.5,684.5 Z"/></g>
<g><path style="opacity:1" fill="#179d8d" d="M 553.5,684.5 C 557.5,684.5 561.5,684.5 565.5,684.5C 569.232,707.062 573.232,729.562 577.5,752C 574.183,752.498 570.85,752.665 567.5,752.5C 566.752,747.515 566.085,742.515 565.5,737.5C 555.145,737.168 544.812,737.501 534.5,738.5C 532.294,743.079 529.961,747.579 527.5,752C 524.167,752.667 520.833,752.667 517.5,752C 530.167,729.832 542.167,707.332 553.5,684.5 Z"/></g>
<g><path style="opacity:1" fill="#fbfdfd" d="M 563.5,729.5 C 555.648,729.825 547.982,729.492 540.5,728.5C 545.719,717.73 551.219,707.063 557,696.5C 559.595,707.401 561.762,718.401 563.5,729.5 Z"/></g>
<g><path style="opacity:1" fill="#fcfefd" d="M 334.5,698.5 C 345.965,696.372 352.632,700.872 354.5,712C 354.547,721.568 350.881,729.235 343.5,735C 334.784,739.182 326.951,738.015 320,731.5C 315.091,716.068 319.924,705.068 334.5,698.5 Z"/></g>
<g><path style="opacity:1" fill="#8bd0c9" d="M 295.5,704.5 C 296.404,705.209 296.737,706.209 296.5,707.5C 289.978,707.823 283.645,707.49 277.5,706.5C 283.926,707.12 289.926,706.453 295.5,704.5 Z"/></g>
<g><path style="opacity:1" fill="#b5e1dc" d="M 195.5,708.5 C 202.424,710.463 209.757,711.13 217.5,710.5C 217.737,711.791 217.404,712.791 216.5,713.5C 209.576,711.537 202.243,710.87 194.5,711.5C 194.263,710.209 194.596,709.209 195.5,708.5 Z"/></g>
<g><path style="opacity:1" fill="#8ad0c9" d="M 215.5,722.5 C 208.24,724.465 200.573,725.132 192.5,724.5C 200.067,723.804 207.734,723.137 215.5,722.5 Z"/></g>
<g><path style="opacity:1" fill="#8cd0c9" d="M 273.5,729.5 C 279.678,728.183 286.012,728.183 292.5,729.5C 292.376,730.107 292.043,730.44 291.5,730.5C 285.69,729.51 279.69,729.177 273.5,729.5 Z"/></g>
<g><path style="opacity:1" fill="#bae4df" d="M 540.5,728.5 C 547.982,729.492 555.648,729.825 563.5,729.5C 555.657,730.82 547.657,730.82 539.5,729.5C 539.624,728.893 539.957,728.56 540.5,728.5 Z"/></g>
<g><path style="opacity:1" fill="#b6e1dd" d="M 190.5,736.5 C 198.433,738.468 206.766,739.135 215.5,738.5C 215.737,739.791 215.404,740.791 214.5,741.5C 206.567,739.532 198.234,738.865 189.5,739.5C 189.263,738.209 189.596,737.209 190.5,736.5 Z"/></g>
</svg>
