<?xml version="1.0" encoding="UTF-8"?>
<!DOCTYPE svg PUBLIC "-//W3C//DTD SVG 1.1//EN" "http://www.w3.org/Graphics/SVG/1.1/DTD/svg11.dtd">
<svg xmlns="http://www.w3.org/2000/svg" version="1.1" width="680px" height="680px" style="shape-rendering:geometricPrecision; text-rendering:geometricPrecision; image-rendering:optimizeQuality; fill-rule:evenodd; clip-rule:evenodd" xmlns:xlink="http://www.w3.org/1999/xlink">
<g><path style="opacity:1" fill="#fefefe" d="M -0.5,-0.5 C 226.167,-0.5 452.833,-0.5 679.5,-0.5C 679.5,226.167 679.5,452.833 679.5,679.5C 452.833,679.5 226.167,679.5 -0.5,679.5C -0.5,452.833 -0.5,226.167 -0.5,-0.5 Z"/></g>
<g><path style="opacity:1" fill="#029989" d="M 266.5,59.5 C 263.167,59.5 259.833,59.5 256.5,59.5C 256.173,69.3478 256.506,79.0144 257.5,88.5C 257.791,158.834 258.124,229.167 258.5,299.5C 229.771,312.133 200.105,322.299 169.5,330C 162.771,332.409 156.104,334.909 149.5,337.5C 150.606,334.946 151.439,332.279 152,329.5C 155.128,260.347 153.128,191.347 146,122.5C 143.555,98.2763 138.555,74.6096 131,51.5C 127.537,40.7209 121.704,31.5543 113.5,24C 111.783,22.4412 109.783,21.6079 107.5,21.5C 155.5,20.8333 203.5,20.1667 251.5,19.5C 336.656,20.0577 421.656,16.8911 506.5,10C 519.245,8.61981 531.579,5.78647 543.5,1.5C 550.295,37.8555 553.461,74.5221 553,111.5C 552.798,113.256 552.298,114.922 551.5,116.5C 533.93,80.1247 504.93,59.958 464.5,56C 398.491,56.4459 332.491,57.6126 266.5,59.5 Z"/></g>
<g><path style="opacity:1" fill="#b4e0db" d="M 251.5,19.5 C 203.5,20.1667 155.5,20.8333 107.5,21.5C 106.527,21.0133 105.527,20.5133 104.5,20C 153.499,19.5 202.499,19.3333 251.5,19.5 Z"/></g>
<g><path style="opacity:1" fill="#8cd1c9" d="M 266.5,59.5 C 263.713,60.4767 260.713,60.81 257.5,60.5C 257.5,69.8333 257.5,79.1667 257.5,88.5C 256.506,79.0144 256.173,69.3478 256.5,59.5C 259.833,59.5 263.167,59.5 266.5,59.5 Z"/></g>
<g><path style="opacity:1" fill="#aabf5e" d="M 149.5,337.5 C 156.104,334.909 162.771,332.409 169.5,330C 200.105,322.299 229.771,312.133 258.5,299.5C 260.179,299.108 261.846,298.608 263.5,298C 305.683,268.263 352.016,247.596 402.5,236C 447.121,230.251 491.454,231.918 535.5,241C 561.959,246.982 586.626,257.149 609.5,271.5C 571.676,281.379 536.01,296.212 502.5,316C 467.07,347.054 426.404,368.721 380.5,381C 351.479,387.905 322.812,386.905 294.5,378C 326.194,368.322 357.194,356.656 387.5,343C 409.204,332.62 428.704,319.12 446,302.5C 451.126,296.03 455.459,289.03 459,281.5C 459.667,280.5 459.667,279.5 459,278.5C 401.874,318.319 338.374,339.152 268.5,341C 180.163,352.26 103.663,388.093 39,448.5C 63.2367,399.096 100.07,362.096 149.5,337.5 Z"/></g>
<g><path style="opacity:1" fill="#029989" d="M 557.5,553.5 C 558.499,592.996 558.832,632.663 558.5,672.5C 402.332,672.833 246.332,672.5 90.5,671.5C 120.926,652.701 140.093,625.701 148,590.5C 148.677,584.774 149.677,579.107 151,573.5C 151.167,520.497 151.667,467.497 152.5,414.5C 185.634,393.123 221.967,381.79 261.5,380.5C 257.5,461.5 253.5,542.5 249.5,623.5C 308.168,623.667 366.834,623.5 425.5,623C 463.063,620.48 497.396,608.813 528.5,588C 540.974,578.706 550.641,567.206 557.5,553.5 Z"/></g>
<g><path style="opacity:1" fill="#7fccc4" d="M 90.5,671.5 C 246.332,672.5 402.332,672.833 558.5,672.5C 558.832,632.663 558.499,592.996 557.5,553.5C 557.783,552.711 558.283,552.044 559,551.5C 559.5,592.165 559.667,632.832 559.5,673.5C 402.5,673.667 245.5,673.5 88.5,673C 89.0442,672.283 89.7109,671.783 90.5,671.5 Z"/></g>
</svg>
