<?xml version="1.0" encoding="UTF-8"?>
<!DOCTYPE svg PUBLIC "-//W3C//DTD SVG 1.1//EN" "http://www.w3.org/Graphics/SVG/1.1/DTD/svg11.dtd">
<svg xmlns="http://www.w3.org/2000/svg" version="1.1" width="573px" height="672px" style="shape-rendering:geometricPrecision; text-rendering:geometricPrecision; image-rendering:optimizeQuality; fill-rule:evenodd; clip-rule:evenodd" xmlns:xlink="http://www.w3.org/1999/xlink">
<g><path style="opacity:0.987" fill="#009988" d="M 504.5,-0.5 C 505.167,-0.5 505.833,-0.5 506.5,-0.5C 510.101,25.4085 512.934,51.4085 515,77.5C 515.667,88.8333 515.667,100.167 515,111.5C 514.781,112.938 514.281,114.271 513.5,115.5C 498.604,82.5284 473.27,62.6951 437.5,56C 428.707,54.7461 419.874,53.9128 411,53.5C 347.162,55.1745 283.329,56.8412 219.5,58.5C 219.949,137.836 220.615,217.169 221.5,296.5C 220.942,297.79 219.942,298.623 218.5,299C 190.145,310.674 161.145,320.34 131.5,328C 124.771,330.409 118.104,332.909 111.5,335.5C 112.633,332.262 113.467,328.929 114,325.5C 116.811,253.299 114.144,181.299 106,109.5C 103.419,87.5926 98.4187,66.2592 91,45.5C 87.2274,35.7602 81.394,27.5935 73.5,21C 71.0645,20.147 68.7312,19.147 66.5,18C 167.857,18.2494 269.19,16.9161 370.5,14C 411.043,13.0804 451.376,9.74703 491.5,4C 496.211,3.24905 500.544,1.74905 504.5,-0.5 Z"/></g>
<g><path style="opacity:0.979" fill="#a9be5e" d="M 572.5,268.5 C 572.5,269.167 572.5,269.833 572.5,270.5C 534.535,279.487 498.868,293.987 465.5,314C 428.95,345.946 386.95,367.946 339.5,380C 310.802,385.747 282.469,384.414 254.5,376C 295.65,364.424 334.983,348.424 372.5,328C 388.846,317.988 403.013,305.488 415,290.5C 417.284,286.618 418.951,282.618 420,278.5C 379.441,306.141 334.941,324.641 286.5,334C 261.909,337.329 237.242,339.996 212.5,342C 150.2,352.642 93.5335,376.309 42.5,413C 27.7403,424.036 13.407,435.536 -0.5,447.5C -0.5,446.833 -0.5,446.167 -0.5,445.5C 25.2459,397.088 62.5792,360.421 111.5,335.5C 118.104,332.909 124.771,330.409 131.5,328C 161.145,320.34 190.145,310.674 218.5,299C 219.942,298.623 220.942,297.79 221.5,296.5C 223.308,296.509 224.975,296.009 226.5,295C 263.492,269.007 303.825,249.673 347.5,237C 379.221,230.926 411.221,228.926 443.5,231C 489.648,233.116 532.648,245.616 572.5,268.5 Z"/></g>
<g><path style="opacity:0.986" fill="#009988" d="M 521.5,671.5 C 364.5,671.5 207.5,671.5 50.5,671.5C 88.1262,646.976 108.96,611.976 113,566.5C 113.333,515.167 113.667,463.833 114,412.5C 147.538,390.736 184.371,379.403 224.5,378.5C 220.2,459.502 215.867,540.502 211.5,621.5C 269.168,621.667 326.834,621.5 384.5,621C 420.997,618.944 454.664,608.277 485.5,589C 500.182,578.322 512.015,565.155 521,549.5C 521.5,590.165 521.667,630.832 521.5,671.5 Z"/></g>
</svg>
