<?xml version="1.0" encoding="utf-8"?>
<!-- Generator: Adobe Illustrator 24.1.2, SVG Export Plug-In . SVG Version: 6.00 Build 0)  -->
<svg version="1.1" xmlns="http://www.w3.org/2000/svg" xmlns:xlink="http://www.w3.org/1999/xlink" x="0px" y="0px"
	 viewBox="0 0 595.28 841.89" style="enable-background:new 0 0 595.28 841.89;" xml:space="preserve">
<style type="text/css">
	.st0{fill:#FFFFFF;stroke:#000000;stroke-miterlimit:10;}
	.st1{fill:#191919;stroke:#191919;stroke-width:3;stroke-miterlimit:10;}
	.st2{opacity:0.3;fill:#191919;stroke:#191919;stroke-width:3;stroke-miterlimit:10;}
	.st3{display:none;}
	.st4{display:inline;fill:#191919;stroke:#191919;stroke-width:3;stroke-miterlimit:10;}
</style>
<g id="base">
	<path class="st0" d="M616-25.11"/>
	<path class="st1" d="M241.35,385.32c62.04-42.91,110.55-51.31,110.55-51.31c124.54-13.06,183.78,28.92,183.78,28.92
		c-61.1,13.06-92.35,38.25-92.35,38.25c-20.52,14.93-64.78,39.65-64.78,39.65c-66.18,27.99-112,12.13-112,12.13
		c134.8-32.18,141.8-84.89,141.8-84.89c-94.69,55.04-146.93,53.17-146.93,53.17c-43.38,0-75.56,11.19-75.56,11.19
		c-85.36,24.25-136.67,81.63-136.67,81.63c41.05-71.83,93.81-93.46,93.81-93.46c5.23-6.54,3.93-13.09,3.93-13.09
		c7.85-270.88-40.57-259.1-40.57-259.1c2.06,0,348.64,2.38,372.95-15.7c0,0,13.09,81.13,6.54,98.15c0,0-13.09-52.63-88.7-52.63
		c-2.8,0-161.85,3.73-161.85,3.73l1.87,204.3L241.35,385.32z"/>
	<path class="st1" d="M528.57,258.96"/>
	<path class="st2" d="M535.67,623.95"/>
	<path class="st1" d="M33.13,105.69"/>
	<path class="st1" d="M239.54,455.05c-54.25,1.51-93.26,29.12-93.26,29.12v119.57c0,0,4.93,66.07-53.53,99.33H492.1v-102.9
		c0,0-10.11,37.68-79.62,55.2c0,0-2.64,3.15-40.03,6.11H228.91L239.54,455.05z"/>
</g>
<g id="Camada_2" class="st3">
	<path class="st4" d="M243.36,446.04c-54.25,1.51-93.26,29.12-93.26,29.12v119.57c0,0,4.93,66.07-53.53,99.33h399.35v-102.9
		c0,0-10.11,37.68-79.62,55.2c0,0-2.64,3.15-40.03,6.11H232.73L243.36,446.04z"/>
	<path class="st4" d="M660.46,546.25"/>
</g>
</svg>
