<?xml version="1.0" encoding="UTF-8"?>
<!DOCTYPE svg PUBLIC "-//W3C//DTD SVG 1.1//EN" "http://www.w3.org/Graphics/SVG/1.1/DTD/svg11.dtd">
<svg xmlns="http://www.w3.org/2000/svg" version="1.1" width="629px" height="800px" style="shape-rendering:geometricPrecision; text-rendering:geometricPrecision; image-rendering:optimizeQuality; fill-rule:evenodd; clip-rule:evenodd" xmlns:xlink="http://www.w3.org/1999/xlink">
<g><path style="opacity:0.986" fill="#009988" d="M 244.5,280.5 C 243.942,281.79 242.942,282.623 241.5,283C 233.833,286 226.167,289 218.5,292C 195.394,299.356 172.394,306.856 149.5,314.5C 150.633,311.262 151.467,307.929 152,304.5C 154.043,245.686 152.043,187.019 146,128.5C 143.801,106.166 138.801,84.4998 131,63.5C 127.537,53.7057 121.037,46.8724 111.5,43C 198.52,42.9101 285.52,41.5768 372.5,39C 405.654,38.1454 438.654,35.4787 471.5,31C 477.322,29.9616 482.989,28.4616 488.5,26.5C 492.222,54.392 494.889,82.392 496.5,110.5C 496.455,115.984 495.622,121.317 494,126.5C 480.994,98.1656 459.16,80.9989 428.5,75C 418.204,73.9311 407.87,73.4311 397.5,73.5C 346.122,74.4777 294.789,75.811 243.5,77.5C 242.617,145.206 242.95,212.872 244.5,280.5 Z"/></g>
<g><path style="opacity:0.976" fill="#a9be5e" d="M 149.5,314.5 C 172.394,306.856 195.394,299.356 218.5,292C 226.167,289 233.833,286 241.5,283C 242.942,282.623 243.942,281.79 244.5,280.5C 259.572,271.456 274.905,262.623 290.5,254C 345.034,225.308 402.7,216.642 463.5,228C 492.036,232.455 518.703,241.955 543.5,256.5C 544.833,257.167 544.833,257.833 543.5,258.5C 512.068,266.474 482.401,278.641 454.5,295C 421.949,323.278 384.615,342.611 342.5,353C 325.548,355.843 308.548,356.176 291.5,354C 284.919,352.939 278.586,351.106 272.5,348.5C 306.229,339.092 338.562,326.259 369.5,310C 380.625,303.019 391.125,295.186 401,286.5C 406.039,280.921 410.206,274.755 413.5,268C 413.167,267.5 412.833,267 412.5,266.5C 363.857,298.92 310.191,316.086 251.5,318C 175.712,327.901 110.045,358.734 54.5,410.5C 74.509,367.488 106.176,335.488 149.5,314.5 Z"/></g>
<g><path style="opacity:0.984" fill="#009988" d="M 231.5,351.5 C 236.5,351.5 241.5,351.5 246.5,351.5C 242.9,420.838 239.233,490.172 235.5,559.5C 284.168,559.667 332.834,559.5 381.5,559C 413.198,557.432 442.531,548.432 469.5,532C 482.526,522.978 492.692,511.478 500,497.5C 500.5,532.498 500.667,567.498 500.5,602.5C 366.165,602.833 231.832,602.5 97.5,601.5C 130.407,580.718 148.24,550.718 151,511.5C 151.333,467.833 151.667,424.167 152,380.5C 176.337,364.778 202.837,355.111 231.5,351.5 Z"/></g>
<g><path style="opacity:0.936" fill="#009988" d="M 168.5,669.5 C 181.061,667.59 191.561,671.256 200,680.5C 202.736,684.779 204.236,689.446 204.5,694.5C 198.158,694.666 191.825,694.5 185.5,694C 178.608,684.352 170.275,683.018 160.5,690C 153.114,697.488 150.614,706.321 153,716.5C 159.305,725.248 167.138,726.748 176.5,721C 178.167,719.333 179.833,717.667 181.5,716C 187.859,715.169 194.193,715.336 200.5,716.5C 190.266,736.115 174.266,743.615 152.5,739C 140.014,734.489 133.68,725.489 133.5,712C 135.639,689.717 147.305,675.55 168.5,669.5 Z"/></g>
<g><path style="opacity:0.946" fill="#009988" d="M 241.5,669.5 C 268.82,666.987 281.32,679.32 279,706.5C 272.899,731.311 257.066,742.478 231.5,740C 214.361,734.907 206.861,723.407 209,705.5C 212.04,686.3 222.874,674.3 241.5,669.5 Z M 243.5,685.5 C 254.889,684.231 261.222,689.231 262.5,700.5C 261.723,714.435 254.556,722.435 241,724.5C 231.046,724.077 226.212,718.91 226.5,709C 226.968,697.176 232.634,689.343 243.5,685.5 Z"/></g>
<g><path style="opacity:0.94" fill="#009988" d="M 90.5,670.5 C 104.849,670.167 119.182,670.501 133.5,671.5C 132.658,675.728 131.658,679.894 130.5,684C 122.173,684.5 113.84,684.666 105.5,684.5C 104.725,688.814 104.059,693.147 103.5,697.5C 110.833,697.5 118.167,697.5 125.5,697.5C 124.833,702.167 124.167,706.833 123.5,711.5C 115.833,711.5 108.167,711.5 100.5,711.5C 99.8333,716.167 99.1667,720.833 98.5,725.5C 106.833,725.5 115.167,725.5 123.5,725.5C 122.704,730.147 122.037,734.814 121.5,739.5C 107.167,739.5 92.8333,739.5 78.5,739.5C 82.1773,716.436 86.1773,693.436 90.5,670.5 Z"/></g>
<g><path style="opacity:0.914" fill="#009988" d="M 295.5,670.5 C 298.833,670.5 302.167,670.5 305.5,670.5C 302.156,690.895 298.49,711.228 294.5,731.5C 302.472,732.498 310.472,732.831 318.5,732.5C 318.007,734.806 317.674,737.139 317.5,739.5C 306.147,739.832 294.814,739.499 283.5,738.5C 287.931,715.912 291.931,693.245 295.5,670.5 Z"/></g>
<g><path style="opacity:0.93" fill="#009988" d="M 338.5,670.5 C 351.184,670.168 363.851,670.501 376.5,671.5C 375.626,673.747 375.292,676.08 375.5,678.5C 366.161,678.334 356.827,678.5 347.5,679C 345.793,686.404 344.46,693.904 343.5,701.5C 351.5,701.5 359.5,701.5 367.5,701.5C 367.756,703.792 367.423,705.959 366.5,708C 358.173,708.5 349.84,708.666 341.5,708.5C 340.706,716.264 339.373,723.931 337.5,731.5C 346.81,732.498 356.143,732.832 365.5,732.5C 365.007,734.806 364.674,737.139 364.5,739.5C 351.816,739.832 339.149,739.499 326.5,738.5C 330.931,715.912 334.931,693.245 338.5,670.5 Z"/></g>
<g><path style="opacity:0.892" fill="#009988" d="M 384.5,670.5 C 400.167,670.5 415.833,670.5 431.5,670.5C 431.167,673.167 430.833,675.833 430.5,678.5C 424.167,678.5 417.833,678.5 411.5,678.5C 408.11,698.507 404.61,718.507 401,738.5C 397.943,739.451 394.777,739.784 391.5,739.5C 394.725,719.148 398.059,698.815 401.5,678.5C 395.5,678.5 389.5,678.5 383.5,678.5C 383.833,675.833 384.167,673.167 384.5,670.5 Z"/></g>
<g><path style="opacity:0.907" fill="#009988" d="M 461.5,671.5 C 465.5,671.5 469.5,671.5 473.5,671.5C 477.371,694.188 481.371,716.855 485.5,739.5C 482.167,739.5 478.833,739.5 475.5,739.5C 474.687,734.601 473.687,729.768 472.5,725C 462.833,724.333 453.167,724.333 443.5,725C 441.086,729.829 438.42,734.496 435.5,739C 432.118,739.824 428.784,739.657 425.5,738.5C 437.779,716.272 449.779,693.939 461.5,671.5 Z M 464.5,684.5 C 467.195,694.624 469.528,704.958 471.5,715.5C 463.833,716.833 456.167,716.833 448.5,715.5C 454.114,705.27 459.448,694.937 464.5,684.5 Z"/></g>
</svg>
